M48
;DRILL file {KiCad 4.0.7} date 07/19/18 21:01:54
;FORMAT={-:-/ absolute / metric / decimal}
FMAT,2
METRIC,TZ
T1C0.400
T2C0.500
T3C0.800
T4C1.000
T5C1.100
T6C1.200
T7C3.048
%
G90
G05
M71
T1
X133.Y-112.
X134.Y-113.5
X135.Y-110.5
X259.Y-109.5
X261.Y-119.5
X272.Y-110.5
X275.Y-119.
X389.Y-108.5
X394.Y-118.
T2
X163.Y-146.75
X163.Y-174.75
X163.Y-202.75
X163.Y-230.75
X163.Y-258.75
X163.Y-286.75
X163.Y-314.75
X163.Y-342.75
X163.Y-370.75
X163.Y-398.75
X163.Y-426.75
X163.Y-454.75
X163.Y-482.75
X163.Y-510.75
X163.Y-538.75
X163.Y-566.75
X191.Y-146.75
X191.Y-174.75
X191.Y-202.75
X191.Y-230.75
X191.Y-258.75
X191.Y-286.75
X191.Y-314.75
X191.Y-342.75
X191.Y-370.75
X191.Y-398.75
X191.Y-426.75
X191.Y-454.75
X191.Y-482.75
X191.Y-510.75
X191.Y-538.75
X191.Y-566.75
X219.Y-146.75
X219.Y-174.75
X219.Y-202.75
X219.Y-230.75
X219.Y-258.75
X219.Y-286.75
X219.Y-314.75
X219.Y-342.75
X219.Y-370.75
X219.Y-398.75
X219.Y-426.75
X219.Y-454.75
X219.Y-482.75
X219.Y-510.75
X219.Y-538.75
X219.Y-566.75
X247.Y-146.75
X247.Y-174.75
X247.Y-202.75
X247.Y-230.75
X247.Y-258.75
X247.Y-286.75
X247.Y-314.75
X247.Y-342.75
X247.Y-370.75
X247.Y-398.75
X247.Y-426.75
X247.Y-454.75
X247.Y-482.75
X247.Y-510.75
X247.Y-538.75
X247.Y-566.75
X275.Y-146.75
X275.Y-174.75
X275.Y-202.75
X275.Y-230.75
X275.Y-258.75
X275.Y-286.75
X275.Y-314.75
X275.Y-342.75
X275.Y-370.75
X275.Y-398.75
X275.Y-426.75
X275.Y-454.75
X275.Y-482.75
X275.Y-510.75
X275.Y-538.75
X275.Y-566.75
X303.Y-146.75
X303.Y-174.75
X303.Y-202.75
X303.Y-230.75
X303.Y-258.75
X303.Y-286.75
X303.Y-314.75
X303.Y-342.75
X303.Y-370.75
X303.Y-398.75
X303.Y-426.75
X303.Y-454.75
X303.Y-482.75
X303.Y-510.75
X303.Y-538.75
X303.Y-566.75
X331.Y-146.75
X331.Y-174.75
X331.Y-202.75
X331.Y-230.75
X331.Y-258.75
X331.Y-286.75
X331.Y-314.75
X331.Y-342.75
X331.Y-370.75
X331.Y-398.75
X331.Y-426.75
X331.Y-454.75
X331.Y-482.75
X331.Y-510.75
X331.Y-538.75
X331.Y-566.75
X359.Y-146.75
X359.Y-174.75
X359.Y-202.75
X359.Y-230.75
X359.Y-258.75
X359.Y-286.75
X359.Y-314.75
X359.Y-342.75
X359.Y-370.75
X359.Y-398.75
X359.Y-426.75
X359.Y-454.75
X359.Y-482.75
X359.Y-510.75
X359.Y-538.75
X359.Y-566.75
X387.Y-146.75
X387.Y-174.75
X387.Y-202.75
X387.Y-230.75
X387.Y-258.75
X387.Y-286.75
X387.Y-314.75
X387.Y-342.75
X387.Y-370.75
X387.Y-398.75
X387.Y-426.75
X387.Y-454.75
X387.Y-482.75
X387.Y-510.75
X387.Y-538.75
X387.Y-566.75
X415.Y-146.75
X415.Y-174.75
X415.Y-202.75
X415.Y-230.75
X415.Y-258.75
X415.Y-286.75
X415.Y-314.75
X415.Y-342.75
X415.Y-370.75
X415.Y-398.75
X415.Y-426.75
X415.Y-454.75
X415.Y-482.75
X415.Y-510.75
X415.Y-538.75
X415.Y-566.75
X443.Y-146.75
X443.Y-174.75
X443.Y-202.75
X443.Y-230.75
X443.Y-258.75
X443.Y-286.75
X443.Y-314.75
X443.Y-342.75
X443.Y-370.75
X443.Y-398.75
X443.Y-426.75
X443.Y-454.75
X443.Y-482.75
X443.Y-510.75
X443.Y-538.75
X443.Y-566.75
X471.Y-146.75
X471.Y-174.75
X471.Y-202.75
X471.Y-230.75
X471.Y-258.75
X471.Y-286.75
X471.Y-314.75
X471.Y-342.75
X471.Y-370.75
X471.Y-398.75
X471.Y-426.75
X471.Y-454.75
X471.Y-482.75
X471.Y-510.75
X471.Y-538.75
X471.Y-566.75
X499.Y-146.75
X499.Y-174.75
X499.Y-202.75
X499.Y-230.75
X499.Y-258.75
X499.Y-286.75
X499.Y-314.75
X499.Y-342.75
X499.Y-370.75
X499.Y-398.75
X499.Y-426.75
X499.Y-454.75
X499.Y-482.75
X499.Y-510.75
X499.Y-538.75
X499.Y-566.75
X527.Y-146.75
X527.Y-174.75
X527.Y-202.75
X527.Y-230.75
X527.Y-258.75
X527.Y-286.75
X527.Y-314.75
X527.Y-342.75
X527.Y-370.75
X527.Y-398.75
X527.Y-426.75
X527.Y-454.75
X527.Y-482.75
X527.Y-510.75
X527.Y-538.75
X527.Y-566.75
X555.Y-146.75
X555.Y-174.75
X555.Y-202.75
X555.Y-230.75
X555.Y-258.75
X555.Y-286.75
X555.Y-314.75
X555.Y-342.75
X555.Y-370.75
X555.Y-398.75
X555.Y-426.75
X555.Y-454.75
X555.Y-482.75
X555.Y-510.75
X555.Y-538.75
X555.Y-566.75
X583.Y-146.75
X583.Y-174.75
X583.Y-202.75
X583.Y-230.75
X583.Y-258.75
X583.Y-286.75
X583.Y-314.75
X583.Y-342.75
X583.Y-370.75
X583.Y-398.75
X583.Y-426.75
X583.Y-454.75
X583.Y-482.75
X583.Y-510.75
X583.Y-538.75
X583.Y-566.75
T3
X142.5Y-149.98
X142.5Y-157.6
X142.5Y-177.98
X142.5Y-185.6
X142.5Y-205.98
X142.5Y-213.6
X142.5Y-233.98
X142.5Y-241.6
X142.5Y-261.98
X142.5Y-269.6
X142.5Y-289.98
X142.5Y-297.6
X142.5Y-317.98
X142.5Y-325.6
X142.5Y-345.98
X142.5Y-353.6
X142.5Y-373.98
X142.5Y-381.6
X142.5Y-401.98
X142.5Y-409.6
X142.5Y-429.98
X142.5Y-437.6
X142.5Y-457.98
X142.5Y-465.6
X142.5Y-485.98
X142.5Y-493.6
X142.5Y-513.98
X142.5Y-521.6
X142.5Y-541.98
X142.5Y-549.6
X142.5Y-569.98
X142.5Y-577.6
X170.5Y-149.98
X170.5Y-157.6
X170.5Y-177.98
X170.5Y-185.6
X170.5Y-205.98
X170.5Y-213.6
X170.5Y-233.98
X170.5Y-241.6
X170.5Y-261.98
X170.5Y-269.6
X170.5Y-289.98
X170.5Y-297.6
X170.5Y-317.98
X170.5Y-325.6
X170.5Y-345.98
X170.5Y-353.6
X170.5Y-373.98
X170.5Y-381.6
X170.5Y-401.98
X170.5Y-409.6
X170.5Y-429.98
X170.5Y-437.6
X170.5Y-457.98
X170.5Y-465.6
X170.5Y-485.98
X170.5Y-493.6
X170.5Y-513.98
X170.5Y-521.6
X170.5Y-541.98
X170.5Y-549.6
X170.5Y-569.98
X170.5Y-577.6
X198.5Y-149.98
X198.5Y-157.6
X198.5Y-177.98
X198.5Y-185.6
X198.5Y-205.98
X198.5Y-213.6
X198.5Y-233.98
X198.5Y-241.6
X198.5Y-261.98
X198.5Y-269.6
X198.5Y-289.98
X198.5Y-297.6
X198.5Y-317.98
X198.5Y-325.6
X198.5Y-345.98
X198.5Y-353.6
X198.5Y-373.98
X198.5Y-381.6
X198.5Y-401.98
X198.5Y-409.6
X198.5Y-429.98
X198.5Y-437.6
X198.5Y-457.98
X198.5Y-465.6
X198.5Y-485.98
X198.5Y-493.6
X198.5Y-513.98
X198.5Y-521.6
X198.5Y-541.98
X198.5Y-549.6
X198.5Y-569.98
X198.5Y-577.6
X226.5Y-149.98
X226.5Y-157.6
X226.5Y-177.98
X226.5Y-185.6
X226.5Y-205.98
X226.5Y-213.6
X226.5Y-233.98
X226.5Y-241.6
X226.5Y-261.98
X226.5Y-269.6
X226.5Y-289.98
X226.5Y-297.6
X226.5Y-317.98
X226.5Y-325.6
X226.5Y-345.98
X226.5Y-353.6
X226.5Y-373.98
X226.5Y-381.6
X226.5Y-401.98
X226.5Y-409.6
X226.5Y-429.98
X226.5Y-437.6
X226.5Y-457.98
X226.5Y-465.6
X226.5Y-485.98
X226.5Y-493.6
X226.5Y-513.98
X226.5Y-521.6
X226.5Y-541.98
X226.5Y-549.6
X226.5Y-569.98
X226.5Y-577.6
X254.5Y-149.98
X254.5Y-157.6
X254.5Y-177.98
X254.5Y-185.6
X254.5Y-205.98
X254.5Y-213.6
X254.5Y-233.98
X254.5Y-241.6
X254.5Y-261.98
X254.5Y-269.6
X254.5Y-289.98
X254.5Y-297.6
X254.5Y-317.98
X254.5Y-325.6
X254.5Y-345.98
X254.5Y-353.6
X254.5Y-373.98
X254.5Y-381.6
X254.5Y-401.98
X254.5Y-409.6
X254.5Y-429.98
X254.5Y-437.6
X254.5Y-457.98
X254.5Y-465.6
X254.5Y-485.98
X254.5Y-493.6
X254.5Y-513.98
X254.5Y-521.6
X254.5Y-541.98
X254.5Y-549.6
X254.5Y-569.98
X254.5Y-577.6
X260.5Y-114.88
X260.5Y-122.5
X263.04Y-114.88
X263.04Y-122.5
X265.58Y-114.88
X265.58Y-122.5
X268.12Y-114.88
X268.12Y-122.5
X270.66Y-114.88
X270.66Y-122.5
X273.2Y-114.88
X273.2Y-122.5
X275.74Y-114.88
X275.74Y-122.5
X278.28Y-114.88
X278.28Y-122.5
X282.Y-117.5
X282.Y-120.
X282.5Y-149.98
X282.5Y-157.6
X282.5Y-177.98
X282.5Y-185.6
X282.5Y-205.98
X282.5Y-213.6
X282.5Y-233.98
X282.5Y-241.6
X282.5Y-261.98
X282.5Y-269.6
X282.5Y-289.98
X282.5Y-297.6
X282.5Y-317.98
X282.5Y-325.6
X282.5Y-345.98
X282.5Y-353.6
X282.5Y-373.98
X282.5Y-381.6
X282.5Y-401.98
X282.5Y-409.6
X282.5Y-429.98
X282.5Y-437.6
X282.5Y-457.98
X282.5Y-465.6
X282.5Y-485.98
X282.5Y-493.6
X282.5Y-513.98
X282.5Y-521.6
X282.5Y-541.98
X282.5Y-549.6
X282.5Y-569.98
X282.5Y-577.6
X310.5Y-149.98
X310.5Y-157.6
X310.5Y-177.98
X310.5Y-185.6
X310.5Y-205.98
X310.5Y-213.6
X310.5Y-233.98
X310.5Y-241.6
X310.5Y-261.98
X310.5Y-269.6
X310.5Y-289.98
X310.5Y-297.6
X310.5Y-317.98
X310.5Y-325.6
X310.5Y-345.98
X310.5Y-353.6
X310.5Y-373.98
X310.5Y-381.6
X310.5Y-401.98
X310.5Y-409.6
X310.5Y-429.98
X310.5Y-437.6
X310.5Y-457.98
X310.5Y-465.6
X310.5Y-485.98
X310.5Y-493.6
X310.5Y-513.98
X310.5Y-521.6
X310.5Y-541.98
X310.5Y-549.6
X310.5Y-569.98
X310.5Y-577.6
X338.5Y-149.98
X338.5Y-157.6
X338.5Y-177.98
X338.5Y-185.6
X338.5Y-205.98
X338.5Y-213.6
X338.5Y-233.98
X338.5Y-241.6
X338.5Y-261.98
X338.5Y-269.6
X338.5Y-289.98
X338.5Y-297.6
X338.5Y-317.98
X338.5Y-325.6
X338.5Y-345.98
X338.5Y-353.6
X338.5Y-373.98
X338.5Y-381.6
X338.5Y-401.98
X338.5Y-409.6
X338.5Y-429.98
X338.5Y-437.6
X338.5Y-457.98
X338.5Y-465.6
X338.5Y-485.98
X338.5Y-493.6
X338.5Y-513.98
X338.5Y-521.6
X338.5Y-541.98
X338.5Y-549.6
X338.5Y-569.98
X338.5Y-577.6
X366.5Y-149.98
X366.5Y-157.6
X366.5Y-177.98
X366.5Y-185.6
X366.5Y-205.98
X366.5Y-213.6
X366.5Y-233.98
X366.5Y-241.6
X366.5Y-261.98
X366.5Y-269.6
X366.5Y-289.98
X366.5Y-297.6
X366.5Y-317.98
X366.5Y-325.6
X366.5Y-345.98
X366.5Y-353.6
X366.5Y-373.98
X366.5Y-381.6
X366.5Y-401.98
X366.5Y-409.6
X366.5Y-429.98
X366.5Y-437.6
X366.5Y-457.98
X366.5Y-465.6
X366.5Y-485.98
X366.5Y-493.6
X366.5Y-513.98
X366.5Y-521.6
X366.5Y-541.98
X366.5Y-549.6
X366.5Y-569.98
X366.5Y-577.6
X380.5Y-113.38
X380.5Y-121.
X383.04Y-113.38
X383.04Y-121.
X385.58Y-113.38
X385.58Y-121.
X388.12Y-113.38
X388.12Y-121.
X390.66Y-113.38
X390.66Y-121.
X393.2Y-113.38
X393.2Y-121.
X394.5Y-149.98
X394.5Y-157.6
X394.5Y-177.98
X394.5Y-185.6
X394.5Y-205.98
X394.5Y-213.6
X394.5Y-233.98
X394.5Y-241.6
X394.5Y-261.98
X394.5Y-269.6
X394.5Y-289.98
X394.5Y-297.6
X394.5Y-317.98
X394.5Y-325.6
X394.5Y-345.98
X394.5Y-353.6
X394.5Y-373.98
X394.5Y-381.6
X394.5Y-401.98
X394.5Y-409.6
X394.5Y-429.98
X394.5Y-437.6
X394.5Y-457.98
X394.5Y-465.6
X394.5Y-485.98
X394.5Y-493.6
X394.5Y-513.98
X394.5Y-521.6
X394.5Y-541.98
X394.5Y-549.6
X394.5Y-569.98
X394.5Y-577.6
X395.74Y-113.38
X395.74Y-121.
X398.28Y-113.38
X398.28Y-121.
X402.Y-116.
X402.Y-118.5
X422.5Y-149.98
X422.5Y-157.6
X422.5Y-177.98
X422.5Y-185.6
X422.5Y-205.98
X422.5Y-213.6
X422.5Y-233.98
X422.5Y-241.6
X422.5Y-261.98
X422.5Y-269.6
X422.5Y-289.98
X422.5Y-297.6
X422.5Y-317.98
X422.5Y-325.6
X422.5Y-345.98
X422.5Y-353.6
X422.5Y-373.98
X422.5Y-381.6
X422.5Y-401.98
X422.5Y-409.6
X422.5Y-429.98
X422.5Y-437.6
X422.5Y-457.98
X422.5Y-465.6
X422.5Y-485.98
X422.5Y-493.6
X422.5Y-513.98
X422.5Y-521.6
X422.5Y-541.98
X422.5Y-549.6
X422.5Y-569.98
X422.5Y-577.6
X450.5Y-149.98
X450.5Y-157.6
X450.5Y-177.98
X450.5Y-185.6
X450.5Y-205.98
X450.5Y-213.6
X450.5Y-233.98
X450.5Y-241.6
X450.5Y-261.98
X450.5Y-269.6
X450.5Y-289.98
X450.5Y-297.6
X450.5Y-317.98
X450.5Y-325.6
X450.5Y-345.98
X450.5Y-353.6
X450.5Y-373.98
X450.5Y-381.6
X450.5Y-401.98
X450.5Y-409.6
X450.5Y-429.98
X450.5Y-437.6
X450.5Y-457.98
X450.5Y-465.6
X450.5Y-485.98
X450.5Y-493.6
X450.5Y-513.98
X450.5Y-521.6
X450.5Y-541.98
X450.5Y-549.6
X450.5Y-569.98
X450.5Y-577.6
X478.5Y-149.98
X478.5Y-157.6
X478.5Y-177.98
X478.5Y-185.6
X478.5Y-205.98
X478.5Y-213.6
X478.5Y-233.98
X478.5Y-241.6
X478.5Y-261.98
X478.5Y-269.6
X478.5Y-289.98
X478.5Y-297.6
X478.5Y-317.98
X478.5Y-325.6
X478.5Y-345.98
X478.5Y-353.6
X478.5Y-373.98
X478.5Y-381.6
X478.5Y-401.98
X478.5Y-409.6
X478.5Y-429.98
X478.5Y-437.6
X478.5Y-457.98
X478.5Y-465.6
X478.5Y-485.98
X478.5Y-493.6
X478.5Y-513.98
X478.5Y-521.6
X478.5Y-541.98
X478.5Y-549.6
X478.5Y-569.98
X478.5Y-577.6
X506.5Y-149.98
X506.5Y-157.6
X506.5Y-177.98
X506.5Y-185.6
X506.5Y-205.98
X506.5Y-213.6
X506.5Y-233.98
X506.5Y-241.6
X506.5Y-261.98
X506.5Y-269.6
X506.5Y-289.98
X506.5Y-297.6
X506.5Y-317.98
X506.5Y-325.6
X506.5Y-345.98
X506.5Y-353.6
X506.5Y-373.98
X506.5Y-381.6
X506.5Y-401.98
X506.5Y-409.6
X506.5Y-429.98
X506.5Y-437.6
X506.5Y-457.98
X506.5Y-465.6
X506.5Y-485.98
X506.5Y-493.6
X506.5Y-513.98
X506.5Y-521.6
X506.5Y-541.98
X506.5Y-549.6
X506.5Y-569.98
X506.5Y-577.6
X534.5Y-149.98
X534.5Y-157.6
X534.5Y-177.98
X534.5Y-185.6
X534.5Y-205.98
X534.5Y-213.6
X534.5Y-233.98
X534.5Y-241.6
X534.5Y-261.98
X534.5Y-269.6
X534.5Y-289.98
X534.5Y-297.6
X534.5Y-317.98
X534.5Y-325.6
X534.5Y-345.98
X534.5Y-353.6
X534.5Y-373.98
X534.5Y-381.6
X534.5Y-401.98
X534.5Y-409.6
X534.5Y-429.98
X534.5Y-437.6
X534.5Y-457.98
X534.5Y-465.6
X534.5Y-485.98
X534.5Y-493.6
X534.5Y-513.98
X534.5Y-521.6
X534.5Y-541.98
X534.5Y-549.6
X534.5Y-569.98
X534.5Y-577.6
X562.5Y-149.98
X562.5Y-157.6
X562.5Y-177.98
X562.5Y-185.6
X562.5Y-205.98
X562.5Y-213.6
X562.5Y-233.98
X562.5Y-241.6
X562.5Y-261.98
X562.5Y-269.6
X562.5Y-289.98
X562.5Y-297.6
X562.5Y-317.98
X562.5Y-325.6
X562.5Y-345.98
X562.5Y-353.6
X562.5Y-373.98
X562.5Y-381.6
X562.5Y-401.98
X562.5Y-409.6
X562.5Y-429.98
X562.5Y-437.6
X562.5Y-457.98
X562.5Y-465.6
X562.5Y-485.98
X562.5Y-493.6
X562.5Y-513.98
X562.5Y-521.6
X562.5Y-541.98
X562.5Y-549.6
X562.5Y-569.98
X562.5Y-577.6
T4
X121.5Y-115.
X121.5Y-117.54
X121.5Y-120.08
X121.5Y-122.62
X121.5Y-125.16
X121.5Y-127.7
X121.5Y-130.24
X121.5Y-132.78
X121.5Y-135.32
X121.5Y-137.86
X121.5Y-140.4
X121.5Y-142.94
X124.04Y-115.
X124.04Y-117.54
X124.04Y-120.08
X124.04Y-122.62
X124.04Y-125.16
X124.04Y-127.7
X124.04Y-130.24
X124.04Y-132.78
X124.04Y-135.32
X124.04Y-137.86
X124.04Y-140.4
X124.04Y-142.94
T5
X139.5Y-146.75
X139.5Y-153.25
X139.5Y-174.75
X139.5Y-181.25
X139.5Y-202.75
X139.5Y-209.25
X139.5Y-230.75
X139.5Y-237.25
X139.5Y-258.75
X139.5Y-265.25
X139.5Y-286.75
X139.5Y-293.25
X139.5Y-314.75
X139.5Y-321.25
X139.5Y-342.75
X139.5Y-349.25
X139.5Y-370.75
X139.5Y-377.25
X139.5Y-398.75
X139.5Y-405.25
X139.5Y-426.75
X139.5Y-433.25
X139.5Y-454.75
X139.5Y-461.25
X139.5Y-482.75
X139.5Y-489.25
X139.5Y-510.75
X139.5Y-517.25
X139.5Y-538.75
X139.5Y-545.25
X139.5Y-566.75
X139.5Y-573.25
X160.5Y-146.75
X160.5Y-153.25
X160.5Y-174.75
X160.5Y-181.25
X160.5Y-202.75
X160.5Y-209.25
X160.5Y-230.75
X160.5Y-237.25
X160.5Y-258.75
X160.5Y-265.25
X160.5Y-286.75
X160.5Y-293.25
X160.5Y-314.75
X160.5Y-321.25
X160.5Y-342.75
X160.5Y-349.25
X160.5Y-370.75
X160.5Y-377.25
X160.5Y-398.75
X160.5Y-405.25
X160.5Y-426.75
X160.5Y-433.25
X160.5Y-454.75
X160.5Y-461.25
X160.5Y-482.75
X160.5Y-489.25
X160.5Y-510.75
X160.5Y-517.25
X160.5Y-538.75
X160.5Y-545.25
X160.5Y-566.75
X160.5Y-573.25
X167.5Y-146.75
X167.5Y-153.25
X167.5Y-174.75
X167.5Y-181.25
X167.5Y-202.75
X167.5Y-209.25
X167.5Y-230.75
X167.5Y-237.25
X167.5Y-258.75
X167.5Y-265.25
X167.5Y-286.75
X167.5Y-293.25
X167.5Y-314.75
X167.5Y-321.25
X167.5Y-342.75
X167.5Y-349.25
X167.5Y-370.75
X167.5Y-377.25
X167.5Y-398.75
X167.5Y-405.25
X167.5Y-426.75
X167.5Y-433.25
X167.5Y-454.75
X167.5Y-461.25
X167.5Y-482.75
X167.5Y-489.25
X167.5Y-510.75
X167.5Y-517.25
X167.5Y-538.75
X167.5Y-545.25
X167.5Y-566.75
X167.5Y-573.25
X188.5Y-146.75
X188.5Y-153.25
X188.5Y-174.75
X188.5Y-181.25
X188.5Y-202.75
X188.5Y-209.25
X188.5Y-230.75
X188.5Y-237.25
X188.5Y-258.75
X188.5Y-265.25
X188.5Y-286.75
X188.5Y-293.25
X188.5Y-314.75
X188.5Y-321.25
X188.5Y-342.75
X188.5Y-349.25
X188.5Y-370.75
X188.5Y-377.25
X188.5Y-398.75
X188.5Y-405.25
X188.5Y-426.75
X188.5Y-433.25
X188.5Y-454.75
X188.5Y-461.25
X188.5Y-482.75
X188.5Y-489.25
X188.5Y-510.75
X188.5Y-517.25
X188.5Y-538.75
X188.5Y-545.25
X188.5Y-566.75
X188.5Y-573.25
X195.5Y-146.75
X195.5Y-153.25
X195.5Y-174.75
X195.5Y-181.25
X195.5Y-202.75
X195.5Y-209.25
X195.5Y-230.75
X195.5Y-237.25
X195.5Y-258.75
X195.5Y-265.25
X195.5Y-286.75
X195.5Y-293.25
X195.5Y-314.75
X195.5Y-321.25
X195.5Y-342.75
X195.5Y-349.25
X195.5Y-370.75
X195.5Y-377.25
X195.5Y-398.75
X195.5Y-405.25
X195.5Y-426.75
X195.5Y-433.25
X195.5Y-454.75
X195.5Y-461.25
X195.5Y-482.75
X195.5Y-489.25
X195.5Y-510.75
X195.5Y-517.25
X195.5Y-538.75
X195.5Y-545.25
X195.5Y-566.75
X195.5Y-573.25
X216.5Y-146.75
X216.5Y-153.25
X216.5Y-174.75
X216.5Y-181.25
X216.5Y-202.75
X216.5Y-209.25
X216.5Y-230.75
X216.5Y-237.25
X216.5Y-258.75
X216.5Y-265.25
X216.5Y-286.75
X216.5Y-293.25
X216.5Y-314.75
X216.5Y-321.25
X216.5Y-342.75
X216.5Y-349.25
X216.5Y-370.75
X216.5Y-377.25
X216.5Y-398.75
X216.5Y-405.25
X216.5Y-426.75
X216.5Y-433.25
X216.5Y-454.75
X216.5Y-461.25
X216.5Y-482.75
X216.5Y-489.25
X216.5Y-510.75
X216.5Y-517.25
X216.5Y-538.75
X216.5Y-545.25
X216.5Y-566.75
X216.5Y-573.25
X223.5Y-146.75
X223.5Y-153.25
X223.5Y-174.75
X223.5Y-181.25
X223.5Y-202.75
X223.5Y-209.25
X223.5Y-230.75
X223.5Y-237.25
X223.5Y-258.75
X223.5Y-265.25
X223.5Y-286.75
X223.5Y-293.25
X223.5Y-314.75
X223.5Y-321.25
X223.5Y-342.75
X223.5Y-349.25
X223.5Y-370.75
X223.5Y-377.25
X223.5Y-398.75
X223.5Y-405.25
X223.5Y-426.75
X223.5Y-433.25
X223.5Y-454.75
X223.5Y-461.25
X223.5Y-482.75
X223.5Y-489.25
X223.5Y-510.75
X223.5Y-517.25
X223.5Y-538.75
X223.5Y-545.25
X223.5Y-566.75
X223.5Y-573.25
X244.5Y-146.75
X244.5Y-153.25
X244.5Y-174.75
X244.5Y-181.25
X244.5Y-202.75
X244.5Y-209.25
X244.5Y-230.75
X244.5Y-237.25
X244.5Y-258.75
X244.5Y-265.25
X244.5Y-286.75
X244.5Y-293.25
X244.5Y-314.75
X244.5Y-321.25
X244.5Y-342.75
X244.5Y-349.25
X244.5Y-370.75
X244.5Y-377.25
X244.5Y-398.75
X244.5Y-405.25
X244.5Y-426.75
X244.5Y-433.25
X244.5Y-454.75
X244.5Y-461.25
X244.5Y-482.75
X244.5Y-489.25
X244.5Y-510.75
X244.5Y-517.25
X244.5Y-538.75
X244.5Y-545.25
X244.5Y-566.75
X244.5Y-573.25
X251.5Y-146.75
X251.5Y-153.25
X251.5Y-174.75
X251.5Y-181.25
X251.5Y-202.75
X251.5Y-209.25
X251.5Y-230.75
X251.5Y-237.25
X251.5Y-258.75
X251.5Y-265.25
X251.5Y-286.75
X251.5Y-293.25
X251.5Y-314.75
X251.5Y-321.25
X251.5Y-342.75
X251.5Y-349.25
X251.5Y-370.75
X251.5Y-377.25
X251.5Y-398.75
X251.5Y-405.25
X251.5Y-426.75
X251.5Y-433.25
X251.5Y-454.75
X251.5Y-461.25
X251.5Y-482.75
X251.5Y-489.25
X251.5Y-510.75
X251.5Y-517.25
X251.5Y-538.75
X251.5Y-545.25
X251.5Y-566.75
X251.5Y-573.25
X272.5Y-146.75
X272.5Y-153.25
X272.5Y-174.75
X272.5Y-181.25
X272.5Y-202.75
X272.5Y-209.25
X272.5Y-230.75
X272.5Y-237.25
X272.5Y-258.75
X272.5Y-265.25
X272.5Y-286.75
X272.5Y-293.25
X272.5Y-314.75
X272.5Y-321.25
X272.5Y-342.75
X272.5Y-349.25
X272.5Y-370.75
X272.5Y-377.25
X272.5Y-398.75
X272.5Y-405.25
X272.5Y-426.75
X272.5Y-433.25
X272.5Y-454.75
X272.5Y-461.25
X272.5Y-482.75
X272.5Y-489.25
X272.5Y-510.75
X272.5Y-517.25
X272.5Y-538.75
X272.5Y-545.25
X272.5Y-566.75
X272.5Y-573.25
X279.5Y-146.75
X279.5Y-153.25
X279.5Y-174.75
X279.5Y-181.25
X279.5Y-202.75
X279.5Y-209.25
X279.5Y-230.75
X279.5Y-237.25
X279.5Y-258.75
X279.5Y-265.25
X279.5Y-286.75
X279.5Y-293.25
X279.5Y-314.75
X279.5Y-321.25
X279.5Y-342.75
X279.5Y-349.25
X279.5Y-370.75
X279.5Y-377.25
X279.5Y-398.75
X279.5Y-405.25
X279.5Y-426.75
X279.5Y-433.25
X279.5Y-454.75
X279.5Y-461.25
X279.5Y-482.75
X279.5Y-489.25
X279.5Y-510.75
X279.5Y-517.25
X279.5Y-538.75
X279.5Y-545.25
X279.5Y-566.75
X279.5Y-573.25
X300.5Y-146.75
X300.5Y-153.25
X300.5Y-174.75
X300.5Y-181.25
X300.5Y-202.75
X300.5Y-209.25
X300.5Y-230.75
X300.5Y-237.25
X300.5Y-258.75
X300.5Y-265.25
X300.5Y-286.75
X300.5Y-293.25
X300.5Y-314.75
X300.5Y-321.25
X300.5Y-342.75
X300.5Y-349.25
X300.5Y-370.75
X300.5Y-377.25
X300.5Y-398.75
X300.5Y-405.25
X300.5Y-426.75
X300.5Y-433.25
X300.5Y-454.75
X300.5Y-461.25
X300.5Y-482.75
X300.5Y-489.25
X300.5Y-510.75
X300.5Y-517.25
X300.5Y-538.75
X300.5Y-545.25
X300.5Y-566.75
X300.5Y-573.25
X307.5Y-146.75
X307.5Y-153.25
X307.5Y-174.75
X307.5Y-181.25
X307.5Y-202.75
X307.5Y-209.25
X307.5Y-230.75
X307.5Y-237.25
X307.5Y-258.75
X307.5Y-265.25
X307.5Y-286.75
X307.5Y-293.25
X307.5Y-314.75
X307.5Y-321.25
X307.5Y-342.75
X307.5Y-349.25
X307.5Y-370.75
X307.5Y-377.25
X307.5Y-398.75
X307.5Y-405.25
X307.5Y-426.75
X307.5Y-433.25
X307.5Y-454.75
X307.5Y-461.25
X307.5Y-482.75
X307.5Y-489.25
X307.5Y-510.75
X307.5Y-517.25
X307.5Y-538.75
X307.5Y-545.25
X307.5Y-566.75
X307.5Y-573.25
X328.5Y-146.75
X328.5Y-153.25
X328.5Y-174.75
X328.5Y-181.25
X328.5Y-202.75
X328.5Y-209.25
X328.5Y-230.75
X328.5Y-237.25
X328.5Y-258.75
X328.5Y-265.25
X328.5Y-286.75
X328.5Y-293.25
X328.5Y-314.75
X328.5Y-321.25
X328.5Y-342.75
X328.5Y-349.25
X328.5Y-370.75
X328.5Y-377.25
X328.5Y-398.75
X328.5Y-405.25
X328.5Y-426.75
X328.5Y-433.25
X328.5Y-454.75
X328.5Y-461.25
X328.5Y-482.75
X328.5Y-489.25
X328.5Y-510.75
X328.5Y-517.25
X328.5Y-538.75
X328.5Y-545.25
X328.5Y-566.75
X328.5Y-573.25
X335.5Y-146.75
X335.5Y-153.25
X335.5Y-174.75
X335.5Y-181.25
X335.5Y-202.75
X335.5Y-209.25
X335.5Y-230.75
X335.5Y-237.25
X335.5Y-258.75
X335.5Y-265.25
X335.5Y-286.75
X335.5Y-293.25
X335.5Y-314.75
X335.5Y-321.25
X335.5Y-342.75
X335.5Y-349.25
X335.5Y-370.75
X335.5Y-377.25
X335.5Y-398.75
X335.5Y-405.25
X335.5Y-426.75
X335.5Y-433.25
X335.5Y-454.75
X335.5Y-461.25
X335.5Y-482.75
X335.5Y-489.25
X335.5Y-510.75
X335.5Y-517.25
X335.5Y-538.75
X335.5Y-545.25
X335.5Y-566.75
X335.5Y-573.25
X356.5Y-146.75
X356.5Y-153.25
X356.5Y-174.75
X356.5Y-181.25
X356.5Y-202.75
X356.5Y-209.25
X356.5Y-230.75
X356.5Y-237.25
X356.5Y-258.75
X356.5Y-265.25
X356.5Y-286.75
X356.5Y-293.25
X356.5Y-314.75
X356.5Y-321.25
X356.5Y-342.75
X356.5Y-349.25
X356.5Y-370.75
X356.5Y-377.25
X356.5Y-398.75
X356.5Y-405.25
X356.5Y-426.75
X356.5Y-433.25
X356.5Y-454.75
X356.5Y-461.25
X356.5Y-482.75
X356.5Y-489.25
X356.5Y-510.75
X356.5Y-517.25
X356.5Y-538.75
X356.5Y-545.25
X356.5Y-566.75
X356.5Y-573.25
X363.5Y-146.75
X363.5Y-153.25
X363.5Y-174.75
X363.5Y-181.25
X363.5Y-202.75
X363.5Y-209.25
X363.5Y-230.75
X363.5Y-237.25
X363.5Y-258.75
X363.5Y-265.25
X363.5Y-286.75
X363.5Y-293.25
X363.5Y-314.75
X363.5Y-321.25
X363.5Y-342.75
X363.5Y-349.25
X363.5Y-370.75
X363.5Y-377.25
X363.5Y-398.75
X363.5Y-405.25
X363.5Y-426.75
X363.5Y-433.25
X363.5Y-454.75
X363.5Y-461.25
X363.5Y-482.75
X363.5Y-489.25
X363.5Y-510.75
X363.5Y-517.25
X363.5Y-538.75
X363.5Y-545.25
X363.5Y-566.75
X363.5Y-573.25
X384.5Y-146.75
X384.5Y-153.25
X384.5Y-174.75
X384.5Y-181.25
X384.5Y-202.75
X384.5Y-209.25
X384.5Y-230.75
X384.5Y-237.25
X384.5Y-258.75
X384.5Y-265.25
X384.5Y-286.75
X384.5Y-293.25
X384.5Y-314.75
X384.5Y-321.25
X384.5Y-342.75
X384.5Y-349.25
X384.5Y-370.75
X384.5Y-377.25
X384.5Y-398.75
X384.5Y-405.25
X384.5Y-426.75
X384.5Y-433.25
X384.5Y-454.75
X384.5Y-461.25
X384.5Y-482.75
X384.5Y-489.25
X384.5Y-510.75
X384.5Y-517.25
X384.5Y-538.75
X384.5Y-545.25
X384.5Y-566.75
X384.5Y-573.25
X391.5Y-146.75
X391.5Y-153.25
X391.5Y-174.75
X391.5Y-181.25
X391.5Y-202.75
X391.5Y-209.25
X391.5Y-230.75
X391.5Y-237.25
X391.5Y-258.75
X391.5Y-265.25
X391.5Y-286.75
X391.5Y-293.25
X391.5Y-314.75
X391.5Y-321.25
X391.5Y-342.75
X391.5Y-349.25
X391.5Y-370.75
X391.5Y-377.25
X391.5Y-398.75
X391.5Y-405.25
X391.5Y-426.75
X391.5Y-433.25
X391.5Y-454.75
X391.5Y-461.25
X391.5Y-482.75
X391.5Y-489.25
X391.5Y-510.75
X391.5Y-517.25
X391.5Y-538.75
X391.5Y-545.25
X391.5Y-566.75
X391.5Y-573.25
X412.5Y-146.75
X412.5Y-153.25
X412.5Y-174.75
X412.5Y-181.25
X412.5Y-202.75
X412.5Y-209.25
X412.5Y-230.75
X412.5Y-237.25
X412.5Y-258.75
X412.5Y-265.25
X412.5Y-286.75
X412.5Y-293.25
X412.5Y-314.75
X412.5Y-321.25
X412.5Y-342.75
X412.5Y-349.25
X412.5Y-370.75
X412.5Y-377.25
X412.5Y-398.75
X412.5Y-405.25
X412.5Y-426.75
X412.5Y-433.25
X412.5Y-454.75
X412.5Y-461.25
X412.5Y-482.75
X412.5Y-489.25
X412.5Y-510.75
X412.5Y-517.25
X412.5Y-538.75
X412.5Y-545.25
X412.5Y-566.75
X412.5Y-573.25
X419.5Y-146.75
X419.5Y-153.25
X419.5Y-174.75
X419.5Y-181.25
X419.5Y-202.75
X419.5Y-209.25
X419.5Y-230.75
X419.5Y-237.25
X419.5Y-258.75
X419.5Y-265.25
X419.5Y-286.75
X419.5Y-293.25
X419.5Y-314.75
X419.5Y-321.25
X419.5Y-342.75
X419.5Y-349.25
X419.5Y-370.75
X419.5Y-377.25
X419.5Y-398.75
X419.5Y-405.25
X419.5Y-426.75
X419.5Y-433.25
X419.5Y-454.75
X419.5Y-461.25
X419.5Y-482.75
X419.5Y-489.25
X419.5Y-510.75
X419.5Y-517.25
X419.5Y-538.75
X419.5Y-545.25
X419.5Y-566.75
X419.5Y-573.25
X440.5Y-146.75
X440.5Y-153.25
X440.5Y-174.75
X440.5Y-181.25
X440.5Y-202.75
X440.5Y-209.25
X440.5Y-230.75
X440.5Y-237.25
X440.5Y-258.75
X440.5Y-265.25
X440.5Y-286.75
X440.5Y-293.25
X440.5Y-314.75
X440.5Y-321.25
X440.5Y-342.75
X440.5Y-349.25
X440.5Y-370.75
X440.5Y-377.25
X440.5Y-398.75
X440.5Y-405.25
X440.5Y-426.75
X440.5Y-433.25
X440.5Y-454.75
X440.5Y-461.25
X440.5Y-482.75
X440.5Y-489.25
X440.5Y-510.75
X440.5Y-517.25
X440.5Y-538.75
X440.5Y-545.25
X440.5Y-566.75
X440.5Y-573.25
X447.5Y-146.75
X447.5Y-153.25
X447.5Y-174.75
X447.5Y-181.25
X447.5Y-202.75
X447.5Y-209.25
X447.5Y-230.75
X447.5Y-237.25
X447.5Y-258.75
X447.5Y-265.25
X447.5Y-286.75
X447.5Y-293.25
X447.5Y-314.75
X447.5Y-321.25
X447.5Y-342.75
X447.5Y-349.25
X447.5Y-370.75
X447.5Y-377.25
X447.5Y-398.75
X447.5Y-405.25
X447.5Y-426.75
X447.5Y-433.25
X447.5Y-454.75
X447.5Y-461.25
X447.5Y-482.75
X447.5Y-489.25
X447.5Y-510.75
X447.5Y-517.25
X447.5Y-538.75
X447.5Y-545.25
X447.5Y-566.75
X447.5Y-573.25
X468.5Y-146.75
X468.5Y-153.25
X468.5Y-174.75
X468.5Y-181.25
X468.5Y-202.75
X468.5Y-209.25
X468.5Y-230.75
X468.5Y-237.25
X468.5Y-258.75
X468.5Y-265.25
X468.5Y-286.75
X468.5Y-293.25
X468.5Y-314.75
X468.5Y-321.25
X468.5Y-342.75
X468.5Y-349.25
X468.5Y-370.75
X468.5Y-377.25
X468.5Y-398.75
X468.5Y-405.25
X468.5Y-426.75
X468.5Y-433.25
X468.5Y-454.75
X468.5Y-461.25
X468.5Y-482.75
X468.5Y-489.25
X468.5Y-510.75
X468.5Y-517.25
X468.5Y-538.75
X468.5Y-545.25
X468.5Y-566.75
X468.5Y-573.25
X475.5Y-146.75
X475.5Y-153.25
X475.5Y-174.75
X475.5Y-181.25
X475.5Y-202.75
X475.5Y-209.25
X475.5Y-230.75
X475.5Y-237.25
X475.5Y-258.75
X475.5Y-265.25
X475.5Y-286.75
X475.5Y-293.25
X475.5Y-314.75
X475.5Y-321.25
X475.5Y-342.75
X475.5Y-349.25
X475.5Y-370.75
X475.5Y-377.25
X475.5Y-398.75
X475.5Y-405.25
X475.5Y-426.75
X475.5Y-433.25
X475.5Y-454.75
X475.5Y-461.25
X475.5Y-482.75
X475.5Y-489.25
X475.5Y-510.75
X475.5Y-517.25
X475.5Y-538.75
X475.5Y-545.25
X475.5Y-566.75
X475.5Y-573.25
X496.5Y-146.75
X496.5Y-153.25
X496.5Y-174.75
X496.5Y-181.25
X496.5Y-202.75
X496.5Y-209.25
X496.5Y-230.75
X496.5Y-237.25
X496.5Y-258.75
X496.5Y-265.25
X496.5Y-286.75
X496.5Y-293.25
X496.5Y-314.75
X496.5Y-321.25
X496.5Y-342.75
X496.5Y-349.25
X496.5Y-370.75
X496.5Y-377.25
X496.5Y-398.75
X496.5Y-405.25
X496.5Y-426.75
X496.5Y-433.25
X496.5Y-454.75
X496.5Y-461.25
X496.5Y-482.75
X496.5Y-489.25
X496.5Y-510.75
X496.5Y-517.25
X496.5Y-538.75
X496.5Y-545.25
X496.5Y-566.75
X496.5Y-573.25
X503.5Y-146.75
X503.5Y-153.25
X503.5Y-174.75
X503.5Y-181.25
X503.5Y-202.75
X503.5Y-209.25
X503.5Y-230.75
X503.5Y-237.25
X503.5Y-258.75
X503.5Y-265.25
X503.5Y-286.75
X503.5Y-293.25
X503.5Y-314.75
X503.5Y-321.25
X503.5Y-342.75
X503.5Y-349.25
X503.5Y-370.75
X503.5Y-377.25
X503.5Y-398.75
X503.5Y-405.25
X503.5Y-426.75
X503.5Y-433.25
X503.5Y-454.75
X503.5Y-461.25
X503.5Y-482.75
X503.5Y-489.25
X503.5Y-510.75
X503.5Y-517.25
X503.5Y-538.75
X503.5Y-545.25
X503.5Y-566.75
X503.5Y-573.25
X524.5Y-146.75
X524.5Y-153.25
X524.5Y-174.75
X524.5Y-181.25
X524.5Y-202.75
X524.5Y-209.25
X524.5Y-230.75
X524.5Y-237.25
X524.5Y-258.75
X524.5Y-265.25
X524.5Y-286.75
X524.5Y-293.25
X524.5Y-314.75
X524.5Y-321.25
X524.5Y-342.75
X524.5Y-349.25
X524.5Y-370.75
X524.5Y-377.25
X524.5Y-398.75
X524.5Y-405.25
X524.5Y-426.75
X524.5Y-433.25
X524.5Y-454.75
X524.5Y-461.25
X524.5Y-482.75
X524.5Y-489.25
X524.5Y-510.75
X524.5Y-517.25
X524.5Y-538.75
X524.5Y-545.25
X524.5Y-566.75
X524.5Y-573.25
X531.5Y-146.75
X531.5Y-153.25
X531.5Y-174.75
X531.5Y-181.25
X531.5Y-202.75
X531.5Y-209.25
X531.5Y-230.75
X531.5Y-237.25
X531.5Y-258.75
X531.5Y-265.25
X531.5Y-286.75
X531.5Y-293.25
X531.5Y-314.75
X531.5Y-321.25
X531.5Y-342.75
X531.5Y-349.25
X531.5Y-370.75
X531.5Y-377.25
X531.5Y-398.75
X531.5Y-405.25
X531.5Y-426.75
X531.5Y-433.25
X531.5Y-454.75
X531.5Y-461.25
X531.5Y-482.75
X531.5Y-489.25
X531.5Y-510.75
X531.5Y-517.25
X531.5Y-538.75
X531.5Y-545.25
X531.5Y-566.75
X531.5Y-573.25
X552.5Y-146.75
X552.5Y-153.25
X552.5Y-174.75
X552.5Y-181.25
X552.5Y-202.75
X552.5Y-209.25
X552.5Y-230.75
X552.5Y-237.25
X552.5Y-258.75
X552.5Y-265.25
X552.5Y-286.75
X552.5Y-293.25
X552.5Y-314.75
X552.5Y-321.25
X552.5Y-342.75
X552.5Y-349.25
X552.5Y-370.75
X552.5Y-377.25
X552.5Y-398.75
X552.5Y-405.25
X552.5Y-426.75
X552.5Y-433.25
X552.5Y-454.75
X552.5Y-461.25
X552.5Y-482.75
X552.5Y-489.25
X552.5Y-510.75
X552.5Y-517.25
X552.5Y-538.75
X552.5Y-545.25
X552.5Y-566.75
X552.5Y-573.25
X559.5Y-146.75
X559.5Y-153.25
X559.5Y-174.75
X559.5Y-181.25
X559.5Y-202.75
X559.5Y-209.25
X559.5Y-230.75
X559.5Y-237.25
X559.5Y-258.75
X559.5Y-265.25
X559.5Y-286.75
X559.5Y-293.25
X559.5Y-314.75
X559.5Y-321.25
X559.5Y-342.75
X559.5Y-349.25
X559.5Y-370.75
X559.5Y-377.25
X559.5Y-398.75
X559.5Y-405.25
X559.5Y-426.75
X559.5Y-433.25
X559.5Y-454.75
X559.5Y-461.25
X559.5Y-482.75
X559.5Y-489.25
X559.5Y-510.75
X559.5Y-517.25
X559.5Y-538.75
X559.5Y-545.25
X559.5Y-566.75
X559.5Y-573.25
X580.5Y-146.75
X580.5Y-153.25
X580.5Y-174.75
X580.5Y-181.25
X580.5Y-202.75
X580.5Y-209.25
X580.5Y-230.75
X580.5Y-237.25
X580.5Y-258.75
X580.5Y-265.25
X580.5Y-286.75
X580.5Y-293.25
X580.5Y-314.75
X580.5Y-321.25
X580.5Y-342.75
X580.5Y-349.25
X580.5Y-370.75
X580.5Y-377.25
X580.5Y-398.75
X580.5Y-405.25
X580.5Y-426.75
X580.5Y-433.25
X580.5Y-454.75
X580.5Y-461.25
X580.5Y-482.75
X580.5Y-489.25
X580.5Y-510.75
X580.5Y-517.25
X580.5Y-538.75
X580.5Y-545.25
X580.5Y-566.75
X580.5Y-573.25
T6
X358.Y-105.
X358.5Y-595.
X361.5Y-105.
X362.Y-595.
T7
X102.Y-104.
X102.Y-202.4
X102.Y-300.8
X102.Y-399.2
X102.Y-497.6
X102.Y-596.
X136.Y-136.
X136.Y-164.
X136.Y-192.
X136.Y-220.
X136.Y-248.
X136.Y-276.
X136.Y-304.
X136.Y-332.
X136.Y-360.
X136.Y-388.
X136.Y-416.
X136.Y-444.
X136.Y-472.
X136.Y-500.
X136.Y-528.
X136.Y-556.
X136.Y-584.
X164.Y-136.
X164.Y-164.
X164.Y-192.
X164.Y-220.
X164.Y-248.
X164.Y-276.
X164.Y-304.
X164.Y-332.
X164.Y-360.
X164.Y-388.
X164.Y-416.
X164.Y-444.
X164.Y-472.
X164.Y-500.
X164.Y-528.
X164.Y-556.
X164.Y-584.
X192.Y-136.
X192.Y-164.
X192.Y-192.
X192.Y-220.
X192.Y-248.
X192.Y-276.
X192.Y-304.
X192.Y-332.
X192.Y-360.
X192.Y-388.
X192.Y-416.
X192.Y-444.
X192.Y-472.
X192.Y-500.
X192.Y-528.
X192.Y-556.
X192.Y-584.
X200.4Y-104.
X200.4Y-596.
X220.Y-136.
X220.Y-164.
X220.Y-192.
X220.Y-220.
X220.Y-248.
X220.Y-276.
X220.Y-304.
X220.Y-332.
X220.Y-360.
X220.Y-388.
X220.Y-416.
X220.Y-444.
X220.Y-472.
X220.Y-500.
X220.Y-528.
X220.Y-556.
X220.Y-584.
X248.Y-136.
X248.Y-164.
X248.Y-192.
X248.Y-220.
X248.Y-248.
X248.Y-276.
X248.Y-304.
X248.Y-332.
X248.Y-360.
X248.Y-388.
X248.Y-416.
X248.Y-444.
X248.Y-472.
X248.Y-500.
X248.Y-528.
X248.Y-556.
X248.Y-584.
X276.Y-136.
X276.Y-164.
X276.Y-192.
X276.Y-220.
X276.Y-248.
X276.Y-276.
X276.Y-304.
X276.Y-332.
X276.Y-360.
X276.Y-388.
X276.Y-416.
X276.Y-444.
X276.Y-472.
X276.Y-500.
X276.Y-528.
X276.Y-556.
X276.Y-584.
X298.8Y-104.
X298.8Y-596.
X304.Y-136.
X304.Y-164.
X304.Y-192.
X304.Y-220.
X304.Y-248.
X304.Y-276.
X304.Y-304.
X304.Y-332.
X304.Y-360.
X304.Y-388.
X304.Y-416.
X304.Y-444.
X304.Y-472.
X304.Y-500.
X304.Y-528.
X304.Y-556.
X304.Y-584.
X332.Y-136.
X332.Y-164.
X332.Y-192.
X332.Y-220.
X332.Y-248.
X332.Y-276.
X332.Y-304.
X332.Y-332.
X332.Y-360.
X332.Y-388.
X332.Y-416.
X332.Y-444.
X332.Y-472.
X332.Y-500.
X332.Y-528.
X332.Y-556.
X332.Y-584.
X360.Y-136.
X360.Y-164.
X360.Y-192.
X360.Y-220.
X360.Y-248.
X360.Y-276.
X360.Y-304.
X360.Y-332.
X360.Y-360.
X360.Y-388.
X360.Y-416.
X360.Y-444.
X360.Y-472.
X360.Y-500.
X360.Y-528.
X360.Y-556.
X360.Y-584.
X388.Y-136.
X388.Y-164.
X388.Y-192.
X388.Y-220.
X388.Y-248.
X388.Y-276.
X388.Y-304.
X388.Y-332.
X388.Y-360.
X388.Y-388.
X388.Y-416.
X388.Y-444.
X388.Y-472.
X388.Y-500.
X388.Y-528.
X388.Y-556.
X388.Y-584.
X397.2Y-104.
X397.2Y-596.
X416.Y-136.
X416.Y-164.
X416.Y-192.
X416.Y-220.
X416.Y-248.
X416.Y-276.
X416.Y-304.
X416.Y-332.
X416.Y-360.
X416.Y-388.
X416.Y-416.
X416.Y-444.
X416.Y-472.
X416.Y-500.
X416.Y-528.
X416.Y-556.
X416.Y-584.
X444.Y-136.
X444.Y-164.
X444.Y-192.
X444.Y-220.
X444.Y-248.
X444.Y-276.
X444.Y-304.
X444.Y-332.
X444.Y-360.
X444.Y-388.
X444.Y-416.
X444.Y-444.
X444.Y-472.
X444.Y-500.
X444.Y-528.
X444.Y-556.
X444.Y-584.
X472.Y-136.
X472.Y-164.
X472.Y-192.
X472.Y-220.
X472.Y-248.
X472.Y-276.
X472.Y-304.
X472.Y-332.
X472.Y-360.
X472.Y-388.
X472.Y-416.
X472.Y-444.
X472.Y-472.
X472.Y-500.
X472.Y-528.
X472.Y-556.
X472.Y-584.
X495.6Y-104.
X495.6Y-596.
X500.Y-136.
X500.Y-164.
X500.Y-192.
X500.Y-220.
X500.Y-248.
X500.Y-276.
X500.Y-304.
X500.Y-332.
X500.Y-360.
X500.Y-388.
X500.Y-416.
X500.Y-444.
X500.Y-472.
X500.Y-500.
X500.Y-528.
X500.Y-556.
X500.Y-584.
X528.Y-136.
X528.Y-164.
X528.Y-192.
X528.Y-220.
X528.Y-248.
X528.Y-276.
X528.Y-304.
X528.Y-332.
X528.Y-360.
X528.Y-388.
X528.Y-416.
X528.Y-444.
X528.Y-472.
X528.Y-500.
X528.Y-528.
X528.Y-556.
X528.Y-584.
X556.Y-136.
X556.Y-164.
X556.Y-192.
X556.Y-220.
X556.Y-248.
X556.Y-276.
X556.Y-304.
X556.Y-332.
X556.Y-360.
X556.Y-388.
X556.Y-416.
X556.Y-444.
X556.Y-472.
X556.Y-500.
X556.Y-528.
X556.Y-556.
X556.Y-584.
X584.Y-136.
X584.Y-164.
X584.Y-192.
X584.Y-220.
X584.Y-248.
X584.Y-276.
X584.Y-304.
X584.Y-332.
X584.Y-360.
X584.Y-388.
X584.Y-416.
X584.Y-444.
X584.Y-472.
X584.Y-500.
X584.Y-528.
X584.Y-556.
X584.Y-584.
X594.Y-104.
X594.Y-202.4
X594.Y-300.8
X594.Y-399.2
X594.Y-497.6
X594.Y-596.
T0
M30
