G04 #@! TF.FileFunction,Legend,Bot*
%FSLAX46Y46*%
G04 Gerber Fmt 4.6, Leading zero omitted, Abs format (unit mm)*
G04 Created by KiCad (PCBNEW 4.0.7) date 07/16/18 19:30:43*
%MOMM*%
%LPD*%
G01*
G04 APERTURE LIST*
%ADD10C,0.100000*%
%ADD11C,0.300000*%
%ADD12C,0.010000*%
G04 APERTURE END LIST*
D10*
D11*
X118285714Y-115653571D02*
X118785714Y-114939286D01*
X119142857Y-115653571D02*
X119142857Y-114153571D01*
X118571429Y-114153571D01*
X118428571Y-114225000D01*
X118357143Y-114296429D01*
X118285714Y-114439286D01*
X118285714Y-114653571D01*
X118357143Y-114796429D01*
X118428571Y-114867857D01*
X118571429Y-114939286D01*
X119142857Y-114939286D01*
X117357143Y-114153571D02*
X117071429Y-114153571D01*
X116928571Y-114225000D01*
X116785714Y-114367857D01*
X116714286Y-114653571D01*
X116714286Y-115153571D01*
X116785714Y-115439286D01*
X116928571Y-115582143D01*
X117071429Y-115653571D01*
X117357143Y-115653571D01*
X117500000Y-115582143D01*
X117642857Y-115439286D01*
X117714286Y-115153571D01*
X117714286Y-114653571D01*
X117642857Y-114367857D01*
X117500000Y-114225000D01*
X117357143Y-114153571D01*
X116214285Y-114153571D02*
X115857142Y-115653571D01*
X115571428Y-114582143D01*
X115285714Y-115653571D01*
X114928571Y-114153571D01*
X114714285Y-115796429D02*
X113571428Y-115796429D01*
X112428571Y-115653571D02*
X113285714Y-115653571D01*
X112857142Y-115653571D02*
X112857142Y-114153571D01*
X112999999Y-114367857D01*
X113142857Y-114510714D01*
X113285714Y-114582143D01*
X111071428Y-114153571D02*
X111785714Y-114153571D01*
X111857143Y-114867857D01*
X111785714Y-114796429D01*
X111642857Y-114725000D01*
X111285714Y-114725000D01*
X111142857Y-114796429D01*
X111071428Y-114867857D01*
X111000000Y-115010714D01*
X111000000Y-115367857D01*
X111071428Y-115510714D01*
X111142857Y-115582143D01*
X111285714Y-115653571D01*
X111642857Y-115653571D01*
X111785714Y-115582143D01*
X111857143Y-115510714D01*
X118285714Y-118203571D02*
X118785714Y-117489286D01*
X119142857Y-118203571D02*
X119142857Y-116703571D01*
X118571429Y-116703571D01*
X118428571Y-116775000D01*
X118357143Y-116846429D01*
X118285714Y-116989286D01*
X118285714Y-117203571D01*
X118357143Y-117346429D01*
X118428571Y-117417857D01*
X118571429Y-117489286D01*
X119142857Y-117489286D01*
X117357143Y-116703571D02*
X117071429Y-116703571D01*
X116928571Y-116775000D01*
X116785714Y-116917857D01*
X116714286Y-117203571D01*
X116714286Y-117703571D01*
X116785714Y-117989286D01*
X116928571Y-118132143D01*
X117071429Y-118203571D01*
X117357143Y-118203571D01*
X117500000Y-118132143D01*
X117642857Y-117989286D01*
X117714286Y-117703571D01*
X117714286Y-117203571D01*
X117642857Y-116917857D01*
X117500000Y-116775000D01*
X117357143Y-116703571D01*
X116214285Y-116703571D02*
X115857142Y-118203571D01*
X115571428Y-117132143D01*
X115285714Y-118203571D01*
X114928571Y-116703571D01*
X114714285Y-118346429D02*
X113571428Y-118346429D01*
X112428571Y-118203571D02*
X113285714Y-118203571D01*
X112857142Y-118203571D02*
X112857142Y-116703571D01*
X112999999Y-116917857D01*
X113142857Y-117060714D01*
X113285714Y-117132143D01*
X111142857Y-117203571D02*
X111142857Y-118203571D01*
X111500000Y-116632143D02*
X111857143Y-117703571D01*
X110928571Y-117703571D01*
X118285714Y-120753571D02*
X118785714Y-120039286D01*
X119142857Y-120753571D02*
X119142857Y-119253571D01*
X118571429Y-119253571D01*
X118428571Y-119325000D01*
X118357143Y-119396429D01*
X118285714Y-119539286D01*
X118285714Y-119753571D01*
X118357143Y-119896429D01*
X118428571Y-119967857D01*
X118571429Y-120039286D01*
X119142857Y-120039286D01*
X117357143Y-119253571D02*
X117071429Y-119253571D01*
X116928571Y-119325000D01*
X116785714Y-119467857D01*
X116714286Y-119753571D01*
X116714286Y-120253571D01*
X116785714Y-120539286D01*
X116928571Y-120682143D01*
X117071429Y-120753571D01*
X117357143Y-120753571D01*
X117500000Y-120682143D01*
X117642857Y-120539286D01*
X117714286Y-120253571D01*
X117714286Y-119753571D01*
X117642857Y-119467857D01*
X117500000Y-119325000D01*
X117357143Y-119253571D01*
X116214285Y-119253571D02*
X115857142Y-120753571D01*
X115571428Y-119682143D01*
X115285714Y-120753571D01*
X114928571Y-119253571D01*
X114714285Y-120896429D02*
X113571428Y-120896429D01*
X112428571Y-120753571D02*
X113285714Y-120753571D01*
X112857142Y-120753571D02*
X112857142Y-119253571D01*
X112999999Y-119467857D01*
X113142857Y-119610714D01*
X113285714Y-119682143D01*
X111928571Y-119253571D02*
X111000000Y-119253571D01*
X111500000Y-119825000D01*
X111285714Y-119825000D01*
X111142857Y-119896429D01*
X111071428Y-119967857D01*
X111000000Y-120110714D01*
X111000000Y-120467857D01*
X111071428Y-120610714D01*
X111142857Y-120682143D01*
X111285714Y-120753571D01*
X111714286Y-120753571D01*
X111857143Y-120682143D01*
X111928571Y-120610714D01*
X118285714Y-123303571D02*
X118785714Y-122589286D01*
X119142857Y-123303571D02*
X119142857Y-121803571D01*
X118571429Y-121803571D01*
X118428571Y-121875000D01*
X118357143Y-121946429D01*
X118285714Y-122089286D01*
X118285714Y-122303571D01*
X118357143Y-122446429D01*
X118428571Y-122517857D01*
X118571429Y-122589286D01*
X119142857Y-122589286D01*
X117357143Y-121803571D02*
X117071429Y-121803571D01*
X116928571Y-121875000D01*
X116785714Y-122017857D01*
X116714286Y-122303571D01*
X116714286Y-122803571D01*
X116785714Y-123089286D01*
X116928571Y-123232143D01*
X117071429Y-123303571D01*
X117357143Y-123303571D01*
X117500000Y-123232143D01*
X117642857Y-123089286D01*
X117714286Y-122803571D01*
X117714286Y-122303571D01*
X117642857Y-122017857D01*
X117500000Y-121875000D01*
X117357143Y-121803571D01*
X116214285Y-121803571D02*
X115857142Y-123303571D01*
X115571428Y-122232143D01*
X115285714Y-123303571D01*
X114928571Y-121803571D01*
X114714285Y-123446429D02*
X113571428Y-123446429D01*
X112428571Y-123303571D02*
X113285714Y-123303571D01*
X112857142Y-123303571D02*
X112857142Y-121803571D01*
X112999999Y-122017857D01*
X113142857Y-122160714D01*
X113285714Y-122232143D01*
X111857143Y-121946429D02*
X111785714Y-121875000D01*
X111642857Y-121803571D01*
X111285714Y-121803571D01*
X111142857Y-121875000D01*
X111071428Y-121946429D01*
X111000000Y-122089286D01*
X111000000Y-122232143D01*
X111071428Y-122446429D01*
X111928571Y-123303571D01*
X111000000Y-123303571D01*
X118285714Y-125853571D02*
X118785714Y-125139286D01*
X119142857Y-125853571D02*
X119142857Y-124353571D01*
X118571429Y-124353571D01*
X118428571Y-124425000D01*
X118357143Y-124496429D01*
X118285714Y-124639286D01*
X118285714Y-124853571D01*
X118357143Y-124996429D01*
X118428571Y-125067857D01*
X118571429Y-125139286D01*
X119142857Y-125139286D01*
X117357143Y-124353571D02*
X117071429Y-124353571D01*
X116928571Y-124425000D01*
X116785714Y-124567857D01*
X116714286Y-124853571D01*
X116714286Y-125353571D01*
X116785714Y-125639286D01*
X116928571Y-125782143D01*
X117071429Y-125853571D01*
X117357143Y-125853571D01*
X117500000Y-125782143D01*
X117642857Y-125639286D01*
X117714286Y-125353571D01*
X117714286Y-124853571D01*
X117642857Y-124567857D01*
X117500000Y-124425000D01*
X117357143Y-124353571D01*
X116214285Y-124353571D02*
X115857142Y-125853571D01*
X115571428Y-124782143D01*
X115285714Y-125853571D01*
X114928571Y-124353571D01*
X114714285Y-125996429D02*
X113571428Y-125996429D01*
X112428571Y-125853571D02*
X113285714Y-125853571D01*
X112857142Y-125853571D02*
X112857142Y-124353571D01*
X112999999Y-124567857D01*
X113142857Y-124710714D01*
X113285714Y-124782143D01*
X111000000Y-125853571D02*
X111857143Y-125853571D01*
X111428571Y-125853571D02*
X111428571Y-124353571D01*
X111571428Y-124567857D01*
X111714286Y-124710714D01*
X111857143Y-124782143D01*
X118285714Y-128403571D02*
X118785714Y-127689286D01*
X119142857Y-128403571D02*
X119142857Y-126903571D01*
X118571429Y-126903571D01*
X118428571Y-126975000D01*
X118357143Y-127046429D01*
X118285714Y-127189286D01*
X118285714Y-127403571D01*
X118357143Y-127546429D01*
X118428571Y-127617857D01*
X118571429Y-127689286D01*
X119142857Y-127689286D01*
X117357143Y-126903571D02*
X117071429Y-126903571D01*
X116928571Y-126975000D01*
X116785714Y-127117857D01*
X116714286Y-127403571D01*
X116714286Y-127903571D01*
X116785714Y-128189286D01*
X116928571Y-128332143D01*
X117071429Y-128403571D01*
X117357143Y-128403571D01*
X117500000Y-128332143D01*
X117642857Y-128189286D01*
X117714286Y-127903571D01*
X117714286Y-127403571D01*
X117642857Y-127117857D01*
X117500000Y-126975000D01*
X117357143Y-126903571D01*
X116214285Y-126903571D02*
X115857142Y-128403571D01*
X115571428Y-127332143D01*
X115285714Y-128403571D01*
X114928571Y-126903571D01*
X114714285Y-128546429D02*
X113571428Y-128546429D01*
X112428571Y-128403571D02*
X113285714Y-128403571D01*
X112857142Y-128403571D02*
X112857142Y-126903571D01*
X112999999Y-127117857D01*
X113142857Y-127260714D01*
X113285714Y-127332143D01*
X111500000Y-126903571D02*
X111357143Y-126903571D01*
X111214286Y-126975000D01*
X111142857Y-127046429D01*
X111071428Y-127189286D01*
X111000000Y-127475000D01*
X111000000Y-127832143D01*
X111071428Y-128117857D01*
X111142857Y-128260714D01*
X111214286Y-128332143D01*
X111357143Y-128403571D01*
X111500000Y-128403571D01*
X111642857Y-128332143D01*
X111714286Y-128260714D01*
X111785714Y-128117857D01*
X111857143Y-127832143D01*
X111857143Y-127475000D01*
X111785714Y-127189286D01*
X111714286Y-127046429D01*
X111642857Y-126975000D01*
X111500000Y-126903571D01*
X118285714Y-130953571D02*
X118785714Y-130239286D01*
X119142857Y-130953571D02*
X119142857Y-129453571D01*
X118571429Y-129453571D01*
X118428571Y-129525000D01*
X118357143Y-129596429D01*
X118285714Y-129739286D01*
X118285714Y-129953571D01*
X118357143Y-130096429D01*
X118428571Y-130167857D01*
X118571429Y-130239286D01*
X119142857Y-130239286D01*
X117357143Y-129453571D02*
X117071429Y-129453571D01*
X116928571Y-129525000D01*
X116785714Y-129667857D01*
X116714286Y-129953571D01*
X116714286Y-130453571D01*
X116785714Y-130739286D01*
X116928571Y-130882143D01*
X117071429Y-130953571D01*
X117357143Y-130953571D01*
X117500000Y-130882143D01*
X117642857Y-130739286D01*
X117714286Y-130453571D01*
X117714286Y-129953571D01*
X117642857Y-129667857D01*
X117500000Y-129525000D01*
X117357143Y-129453571D01*
X116214285Y-129453571D02*
X115857142Y-130953571D01*
X115571428Y-129882143D01*
X115285714Y-130953571D01*
X114928571Y-129453571D01*
X114714285Y-131096429D02*
X113571428Y-131096429D01*
X113142857Y-130953571D02*
X112857142Y-130953571D01*
X112714285Y-130882143D01*
X112642857Y-130810714D01*
X112499999Y-130596429D01*
X112428571Y-130310714D01*
X112428571Y-129739286D01*
X112499999Y-129596429D01*
X112571428Y-129525000D01*
X112714285Y-129453571D01*
X112999999Y-129453571D01*
X113142857Y-129525000D01*
X113214285Y-129596429D01*
X113285714Y-129739286D01*
X113285714Y-130096429D01*
X113214285Y-130239286D01*
X113142857Y-130310714D01*
X112999999Y-130382143D01*
X112714285Y-130382143D01*
X112571428Y-130310714D01*
X112499999Y-130239286D01*
X112428571Y-130096429D01*
X118285714Y-133503571D02*
X118785714Y-132789286D01*
X119142857Y-133503571D02*
X119142857Y-132003571D01*
X118571429Y-132003571D01*
X118428571Y-132075000D01*
X118357143Y-132146429D01*
X118285714Y-132289286D01*
X118285714Y-132503571D01*
X118357143Y-132646429D01*
X118428571Y-132717857D01*
X118571429Y-132789286D01*
X119142857Y-132789286D01*
X117357143Y-132003571D02*
X117071429Y-132003571D01*
X116928571Y-132075000D01*
X116785714Y-132217857D01*
X116714286Y-132503571D01*
X116714286Y-133003571D01*
X116785714Y-133289286D01*
X116928571Y-133432143D01*
X117071429Y-133503571D01*
X117357143Y-133503571D01*
X117500000Y-133432143D01*
X117642857Y-133289286D01*
X117714286Y-133003571D01*
X117714286Y-132503571D01*
X117642857Y-132217857D01*
X117500000Y-132075000D01*
X117357143Y-132003571D01*
X116214285Y-132003571D02*
X115857142Y-133503571D01*
X115571428Y-132432143D01*
X115285714Y-133503571D01*
X114928571Y-132003571D01*
X114714285Y-133646429D02*
X113571428Y-133646429D01*
X112999999Y-132646429D02*
X113142857Y-132575000D01*
X113214285Y-132503571D01*
X113285714Y-132360714D01*
X113285714Y-132289286D01*
X113214285Y-132146429D01*
X113142857Y-132075000D01*
X112999999Y-132003571D01*
X112714285Y-132003571D01*
X112571428Y-132075000D01*
X112499999Y-132146429D01*
X112428571Y-132289286D01*
X112428571Y-132360714D01*
X112499999Y-132503571D01*
X112571428Y-132575000D01*
X112714285Y-132646429D01*
X112999999Y-132646429D01*
X113142857Y-132717857D01*
X113214285Y-132789286D01*
X113285714Y-132932143D01*
X113285714Y-133217857D01*
X113214285Y-133360714D01*
X113142857Y-133432143D01*
X112999999Y-133503571D01*
X112714285Y-133503571D01*
X112571428Y-133432143D01*
X112499999Y-133360714D01*
X112428571Y-133217857D01*
X112428571Y-132932143D01*
X112499999Y-132789286D01*
X112571428Y-132717857D01*
X112714285Y-132646429D01*
X118285714Y-136053571D02*
X118785714Y-135339286D01*
X119142857Y-136053571D02*
X119142857Y-134553571D01*
X118571429Y-134553571D01*
X118428571Y-134625000D01*
X118357143Y-134696429D01*
X118285714Y-134839286D01*
X118285714Y-135053571D01*
X118357143Y-135196429D01*
X118428571Y-135267857D01*
X118571429Y-135339286D01*
X119142857Y-135339286D01*
X117357143Y-134553571D02*
X117071429Y-134553571D01*
X116928571Y-134625000D01*
X116785714Y-134767857D01*
X116714286Y-135053571D01*
X116714286Y-135553571D01*
X116785714Y-135839286D01*
X116928571Y-135982143D01*
X117071429Y-136053571D01*
X117357143Y-136053571D01*
X117500000Y-135982143D01*
X117642857Y-135839286D01*
X117714286Y-135553571D01*
X117714286Y-135053571D01*
X117642857Y-134767857D01*
X117500000Y-134625000D01*
X117357143Y-134553571D01*
X116214285Y-134553571D02*
X115857142Y-136053571D01*
X115571428Y-134982143D01*
X115285714Y-136053571D01*
X114928571Y-134553571D01*
X114714285Y-136196429D02*
X113571428Y-136196429D01*
X113357142Y-134553571D02*
X112357142Y-134553571D01*
X112999999Y-136053571D01*
X118285714Y-138603571D02*
X118785714Y-137889286D01*
X119142857Y-138603571D02*
X119142857Y-137103571D01*
X118571429Y-137103571D01*
X118428571Y-137175000D01*
X118357143Y-137246429D01*
X118285714Y-137389286D01*
X118285714Y-137603571D01*
X118357143Y-137746429D01*
X118428571Y-137817857D01*
X118571429Y-137889286D01*
X119142857Y-137889286D01*
X117357143Y-137103571D02*
X117071429Y-137103571D01*
X116928571Y-137175000D01*
X116785714Y-137317857D01*
X116714286Y-137603571D01*
X116714286Y-138103571D01*
X116785714Y-138389286D01*
X116928571Y-138532143D01*
X117071429Y-138603571D01*
X117357143Y-138603571D01*
X117500000Y-138532143D01*
X117642857Y-138389286D01*
X117714286Y-138103571D01*
X117714286Y-137603571D01*
X117642857Y-137317857D01*
X117500000Y-137175000D01*
X117357143Y-137103571D01*
X116214285Y-137103571D02*
X115857142Y-138603571D01*
X115571428Y-137532143D01*
X115285714Y-138603571D01*
X114928571Y-137103571D01*
X114714285Y-138746429D02*
X113571428Y-138746429D01*
X112571428Y-137103571D02*
X112857142Y-137103571D01*
X112999999Y-137175000D01*
X113071428Y-137246429D01*
X113214285Y-137460714D01*
X113285714Y-137746429D01*
X113285714Y-138317857D01*
X113214285Y-138460714D01*
X113142857Y-138532143D01*
X112999999Y-138603571D01*
X112714285Y-138603571D01*
X112571428Y-138532143D01*
X112499999Y-138460714D01*
X112428571Y-138317857D01*
X112428571Y-137960714D01*
X112499999Y-137817857D01*
X112571428Y-137746429D01*
X112714285Y-137675000D01*
X112999999Y-137675000D01*
X113142857Y-137746429D01*
X113214285Y-137817857D01*
X113285714Y-137960714D01*
X118285714Y-141153571D02*
X118785714Y-140439286D01*
X119142857Y-141153571D02*
X119142857Y-139653571D01*
X118571429Y-139653571D01*
X118428571Y-139725000D01*
X118357143Y-139796429D01*
X118285714Y-139939286D01*
X118285714Y-140153571D01*
X118357143Y-140296429D01*
X118428571Y-140367857D01*
X118571429Y-140439286D01*
X119142857Y-140439286D01*
X117357143Y-139653571D02*
X117071429Y-139653571D01*
X116928571Y-139725000D01*
X116785714Y-139867857D01*
X116714286Y-140153571D01*
X116714286Y-140653571D01*
X116785714Y-140939286D01*
X116928571Y-141082143D01*
X117071429Y-141153571D01*
X117357143Y-141153571D01*
X117500000Y-141082143D01*
X117642857Y-140939286D01*
X117714286Y-140653571D01*
X117714286Y-140153571D01*
X117642857Y-139867857D01*
X117500000Y-139725000D01*
X117357143Y-139653571D01*
X116214285Y-139653571D02*
X115857142Y-141153571D01*
X115571428Y-140082143D01*
X115285714Y-141153571D01*
X114928571Y-139653571D01*
X114714285Y-141296429D02*
X113571428Y-141296429D01*
X112499999Y-139653571D02*
X113214285Y-139653571D01*
X113285714Y-140367857D01*
X113214285Y-140296429D01*
X113071428Y-140225000D01*
X112714285Y-140225000D01*
X112571428Y-140296429D01*
X112499999Y-140367857D01*
X112428571Y-140510714D01*
X112428571Y-140867857D01*
X112499999Y-141010714D01*
X112571428Y-141082143D01*
X112714285Y-141153571D01*
X113071428Y-141153571D01*
X113214285Y-141082143D01*
X113285714Y-141010714D01*
X118285714Y-143703571D02*
X118785714Y-142989286D01*
X119142857Y-143703571D02*
X119142857Y-142203571D01*
X118571429Y-142203571D01*
X118428571Y-142275000D01*
X118357143Y-142346429D01*
X118285714Y-142489286D01*
X118285714Y-142703571D01*
X118357143Y-142846429D01*
X118428571Y-142917857D01*
X118571429Y-142989286D01*
X119142857Y-142989286D01*
X117357143Y-142203571D02*
X117071429Y-142203571D01*
X116928571Y-142275000D01*
X116785714Y-142417857D01*
X116714286Y-142703571D01*
X116714286Y-143203571D01*
X116785714Y-143489286D01*
X116928571Y-143632143D01*
X117071429Y-143703571D01*
X117357143Y-143703571D01*
X117500000Y-143632143D01*
X117642857Y-143489286D01*
X117714286Y-143203571D01*
X117714286Y-142703571D01*
X117642857Y-142417857D01*
X117500000Y-142275000D01*
X117357143Y-142203571D01*
X116214285Y-142203571D02*
X115857142Y-143703571D01*
X115571428Y-142632143D01*
X115285714Y-143703571D01*
X114928571Y-142203571D01*
X114714285Y-143846429D02*
X113571428Y-143846429D01*
X112571428Y-142703571D02*
X112571428Y-143703571D01*
X112928571Y-142132143D02*
X113285714Y-143203571D01*
X112357142Y-143203571D01*
X128714286Y-115653571D02*
X128714286Y-114153571D01*
X127857143Y-115653571D01*
X127857143Y-114153571D01*
X126285714Y-115510714D02*
X126357143Y-115582143D01*
X126571429Y-115653571D01*
X126714286Y-115653571D01*
X126928571Y-115582143D01*
X127071429Y-115439286D01*
X127142857Y-115296429D01*
X127214286Y-115010714D01*
X127214286Y-114796429D01*
X127142857Y-114510714D01*
X127071429Y-114367857D01*
X126928571Y-114225000D01*
X126714286Y-114153571D01*
X126571429Y-114153571D01*
X126357143Y-114225000D01*
X126285714Y-114296429D01*
X133142856Y-117203571D02*
X133142856Y-118203571D01*
X133785713Y-117203571D02*
X133785713Y-117989286D01*
X133714285Y-118132143D01*
X133571427Y-118203571D01*
X133357142Y-118203571D01*
X133214285Y-118132143D01*
X133142856Y-118060714D01*
X131571427Y-118060714D02*
X131642856Y-118132143D01*
X131857142Y-118203571D01*
X131999999Y-118203571D01*
X132214284Y-118132143D01*
X132357142Y-117989286D01*
X132428570Y-117846429D01*
X132499999Y-117560714D01*
X132499999Y-117346429D01*
X132428570Y-117060714D01*
X132357142Y-116917857D01*
X132214284Y-116775000D01*
X131999999Y-116703571D01*
X131857142Y-116703571D01*
X131642856Y-116775000D01*
X131571427Y-116846429D01*
X129928570Y-116703571D02*
X128999999Y-116703571D01*
X129499999Y-117275000D01*
X129285713Y-117275000D01*
X129142856Y-117346429D01*
X129071427Y-117417857D01*
X128999999Y-117560714D01*
X128999999Y-117917857D01*
X129071427Y-118060714D01*
X129142856Y-118132143D01*
X129285713Y-118203571D01*
X129714285Y-118203571D01*
X129857142Y-118132143D01*
X129928570Y-118060714D01*
X128571428Y-116703571D02*
X128071428Y-118203571D01*
X127571428Y-116703571D01*
X127214285Y-116703571D02*
X126285714Y-116703571D01*
X126785714Y-117275000D01*
X126571428Y-117275000D01*
X126428571Y-117346429D01*
X126357142Y-117417857D01*
X126285714Y-117560714D01*
X126285714Y-117917857D01*
X126357142Y-118060714D01*
X126428571Y-118132143D01*
X126571428Y-118203571D01*
X127000000Y-118203571D01*
X127142857Y-118132143D01*
X127214285Y-118060714D01*
X130857142Y-120753571D02*
X130857142Y-119253571D01*
X130499999Y-119253571D01*
X130285714Y-119325000D01*
X130142856Y-119467857D01*
X130071428Y-119610714D01*
X129999999Y-119896429D01*
X129999999Y-120110714D01*
X130071428Y-120396429D01*
X130142856Y-120539286D01*
X130285714Y-120682143D01*
X130499999Y-120753571D01*
X130857142Y-120753571D01*
X129428571Y-120325000D02*
X128714285Y-120325000D01*
X129571428Y-120753571D02*
X129071428Y-119253571D01*
X128571428Y-120753571D01*
X128285714Y-119253571D02*
X127428571Y-119253571D01*
X127857142Y-120753571D02*
X127857142Y-119253571D01*
X127000000Y-120325000D02*
X126285714Y-120325000D01*
X127142857Y-120753571D02*
X126642857Y-119253571D01*
X126142857Y-120753571D01*
X132071429Y-123160714D02*
X132142858Y-123232143D01*
X132357144Y-123303571D01*
X132500001Y-123303571D01*
X132714286Y-123232143D01*
X132857144Y-123089286D01*
X132928572Y-122946429D01*
X133000001Y-122660714D01*
X133000001Y-122446429D01*
X132928572Y-122160714D01*
X132857144Y-122017857D01*
X132714286Y-121875000D01*
X132500001Y-121803571D01*
X132357144Y-121803571D01*
X132142858Y-121875000D01*
X132071429Y-121946429D01*
X130714286Y-123303571D02*
X131428572Y-123303571D01*
X131428572Y-121803571D01*
X129928572Y-121803571D02*
X129642858Y-121803571D01*
X129500000Y-121875000D01*
X129357143Y-122017857D01*
X129285715Y-122303571D01*
X129285715Y-122803571D01*
X129357143Y-123089286D01*
X129500000Y-123232143D01*
X129642858Y-123303571D01*
X129928572Y-123303571D01*
X130071429Y-123232143D01*
X130214286Y-123089286D01*
X130285715Y-122803571D01*
X130285715Y-122303571D01*
X130214286Y-122017857D01*
X130071429Y-121875000D01*
X129928572Y-121803571D01*
X127785714Y-123160714D02*
X127857143Y-123232143D01*
X128071429Y-123303571D01*
X128214286Y-123303571D01*
X128428571Y-123232143D01*
X128571429Y-123089286D01*
X128642857Y-122946429D01*
X128714286Y-122660714D01*
X128714286Y-122446429D01*
X128642857Y-122160714D01*
X128571429Y-122017857D01*
X128428571Y-121875000D01*
X128214286Y-121803571D01*
X128071429Y-121803571D01*
X127857143Y-121875000D01*
X127785714Y-121946429D01*
X127142857Y-123303571D02*
X127142857Y-121803571D01*
X126285714Y-123303571D02*
X126928571Y-122446429D01*
X126285714Y-121803571D02*
X127142857Y-122660714D01*
X131642857Y-125853571D02*
X132357143Y-125853571D01*
X132357143Y-124353571D01*
X131214286Y-125425000D02*
X130500000Y-125425000D01*
X131357143Y-125853571D02*
X130857143Y-124353571D01*
X130357143Y-125853571D01*
X130071429Y-124353571D02*
X129214286Y-124353571D01*
X129642857Y-125853571D02*
X129642857Y-124353571D01*
X127857143Y-125710714D02*
X127928572Y-125782143D01*
X128142858Y-125853571D01*
X128285715Y-125853571D01*
X128500000Y-125782143D01*
X128642858Y-125639286D01*
X128714286Y-125496429D01*
X128785715Y-125210714D01*
X128785715Y-124996429D01*
X128714286Y-124710714D01*
X128642858Y-124567857D01*
X128500000Y-124425000D01*
X128285715Y-124353571D01*
X128142858Y-124353571D01*
X127928572Y-124425000D01*
X127857143Y-124496429D01*
X127214286Y-125853571D02*
X127214286Y-124353571D01*
X127214286Y-125067857D02*
X126357143Y-125067857D01*
X126357143Y-125853571D02*
X126357143Y-124353571D01*
X129428572Y-126975000D02*
X129571429Y-126903571D01*
X129785715Y-126903571D01*
X130000000Y-126975000D01*
X130142858Y-127117857D01*
X130214286Y-127260714D01*
X130285715Y-127546429D01*
X130285715Y-127760714D01*
X130214286Y-128046429D01*
X130142858Y-128189286D01*
X130000000Y-128332143D01*
X129785715Y-128403571D01*
X129642858Y-128403571D01*
X129428572Y-128332143D01*
X129357143Y-128260714D01*
X129357143Y-127760714D01*
X129642858Y-127760714D01*
X128714286Y-128403571D02*
X128714286Y-126903571D01*
X127857143Y-128403571D01*
X127857143Y-126903571D01*
X127142857Y-128403571D02*
X127142857Y-126903571D01*
X126785714Y-126903571D01*
X126571429Y-126975000D01*
X126428571Y-127117857D01*
X126357143Y-127260714D01*
X126285714Y-127546429D01*
X126285714Y-127760714D01*
X126357143Y-128046429D01*
X126428571Y-128189286D01*
X126571429Y-128332143D01*
X126785714Y-128403571D01*
X127142857Y-128403571D01*
X127857143Y-130953571D02*
X127857143Y-129453571D01*
X127500000Y-129453571D01*
X127285715Y-129525000D01*
X127142857Y-129667857D01*
X127071429Y-129810714D01*
X127000000Y-130096429D01*
X127000000Y-130310714D01*
X127071429Y-130596429D01*
X127142857Y-130739286D01*
X127285715Y-130882143D01*
X127500000Y-130953571D01*
X127857143Y-130953571D01*
X126357143Y-130953571D02*
X126357143Y-129453571D01*
X127000000Y-133360714D02*
X127071429Y-133432143D01*
X127285715Y-133503571D01*
X127428572Y-133503571D01*
X127642857Y-133432143D01*
X127785715Y-133289286D01*
X127857143Y-133146429D01*
X127928572Y-132860714D01*
X127928572Y-132646429D01*
X127857143Y-132360714D01*
X127785715Y-132217857D01*
X127642857Y-132075000D01*
X127428572Y-132003571D01*
X127285715Y-132003571D01*
X127071429Y-132075000D01*
X127000000Y-132146429D01*
X126357143Y-133503571D02*
X126357143Y-132003571D01*
X132142857Y-136053571D02*
X132642857Y-135339286D01*
X133000000Y-136053571D02*
X133000000Y-134553571D01*
X132428572Y-134553571D01*
X132285714Y-134625000D01*
X132214286Y-134696429D01*
X132142857Y-134839286D01*
X132142857Y-135053571D01*
X132214286Y-135196429D01*
X132285714Y-135267857D01*
X132428572Y-135339286D01*
X133000000Y-135339286D01*
X131214286Y-134553571D02*
X130928572Y-134553571D01*
X130785714Y-134625000D01*
X130642857Y-134767857D01*
X130571429Y-135053571D01*
X130571429Y-135553571D01*
X130642857Y-135839286D01*
X130785714Y-135982143D01*
X130928572Y-136053571D01*
X131214286Y-136053571D01*
X131357143Y-135982143D01*
X131500000Y-135839286D01*
X131571429Y-135553571D01*
X131571429Y-135053571D01*
X131500000Y-134767857D01*
X131357143Y-134625000D01*
X131214286Y-134553571D01*
X130071428Y-134553571D02*
X129714285Y-136053571D01*
X129428571Y-134982143D01*
X129142857Y-136053571D01*
X128785714Y-134553571D01*
X128571428Y-136196429D02*
X127428571Y-136196429D01*
X126785714Y-134553571D02*
X126642857Y-134553571D01*
X126500000Y-134625000D01*
X126428571Y-134696429D01*
X126357142Y-134839286D01*
X126285714Y-135125000D01*
X126285714Y-135482143D01*
X126357142Y-135767857D01*
X126428571Y-135910714D01*
X126500000Y-135982143D01*
X126642857Y-136053571D01*
X126785714Y-136053571D01*
X126928571Y-135982143D01*
X127000000Y-135910714D01*
X127071428Y-135767857D01*
X127142857Y-135482143D01*
X127142857Y-135125000D01*
X127071428Y-134839286D01*
X127000000Y-134696429D01*
X126928571Y-134625000D01*
X126785714Y-134553571D01*
X132142857Y-138603571D02*
X132642857Y-137889286D01*
X133000000Y-138603571D02*
X133000000Y-137103571D01*
X132428572Y-137103571D01*
X132285714Y-137175000D01*
X132214286Y-137246429D01*
X132142857Y-137389286D01*
X132142857Y-137603571D01*
X132214286Y-137746429D01*
X132285714Y-137817857D01*
X132428572Y-137889286D01*
X133000000Y-137889286D01*
X131214286Y-137103571D02*
X130928572Y-137103571D01*
X130785714Y-137175000D01*
X130642857Y-137317857D01*
X130571429Y-137603571D01*
X130571429Y-138103571D01*
X130642857Y-138389286D01*
X130785714Y-138532143D01*
X130928572Y-138603571D01*
X131214286Y-138603571D01*
X131357143Y-138532143D01*
X131500000Y-138389286D01*
X131571429Y-138103571D01*
X131571429Y-137603571D01*
X131500000Y-137317857D01*
X131357143Y-137175000D01*
X131214286Y-137103571D01*
X130071428Y-137103571D02*
X129714285Y-138603571D01*
X129428571Y-137532143D01*
X129142857Y-138603571D01*
X128785714Y-137103571D01*
X128571428Y-138746429D02*
X127428571Y-138746429D01*
X126285714Y-138603571D02*
X127142857Y-138603571D01*
X126714285Y-138603571D02*
X126714285Y-137103571D01*
X126857142Y-137317857D01*
X127000000Y-137460714D01*
X127142857Y-137532143D01*
X132142857Y-141153571D02*
X132642857Y-140439286D01*
X133000000Y-141153571D02*
X133000000Y-139653571D01*
X132428572Y-139653571D01*
X132285714Y-139725000D01*
X132214286Y-139796429D01*
X132142857Y-139939286D01*
X132142857Y-140153571D01*
X132214286Y-140296429D01*
X132285714Y-140367857D01*
X132428572Y-140439286D01*
X133000000Y-140439286D01*
X131214286Y-139653571D02*
X130928572Y-139653571D01*
X130785714Y-139725000D01*
X130642857Y-139867857D01*
X130571429Y-140153571D01*
X130571429Y-140653571D01*
X130642857Y-140939286D01*
X130785714Y-141082143D01*
X130928572Y-141153571D01*
X131214286Y-141153571D01*
X131357143Y-141082143D01*
X131500000Y-140939286D01*
X131571429Y-140653571D01*
X131571429Y-140153571D01*
X131500000Y-139867857D01*
X131357143Y-139725000D01*
X131214286Y-139653571D01*
X130071428Y-139653571D02*
X129714285Y-141153571D01*
X129428571Y-140082143D01*
X129142857Y-141153571D01*
X128785714Y-139653571D01*
X128571428Y-141296429D02*
X127428571Y-141296429D01*
X127142857Y-139796429D02*
X127071428Y-139725000D01*
X126928571Y-139653571D01*
X126571428Y-139653571D01*
X126428571Y-139725000D01*
X126357142Y-139796429D01*
X126285714Y-139939286D01*
X126285714Y-140082143D01*
X126357142Y-140296429D01*
X127214285Y-141153571D01*
X126285714Y-141153571D01*
X132142857Y-143703571D02*
X132642857Y-142989286D01*
X133000000Y-143703571D02*
X133000000Y-142203571D01*
X132428572Y-142203571D01*
X132285714Y-142275000D01*
X132214286Y-142346429D01*
X132142857Y-142489286D01*
X132142857Y-142703571D01*
X132214286Y-142846429D01*
X132285714Y-142917857D01*
X132428572Y-142989286D01*
X133000000Y-142989286D01*
X131214286Y-142203571D02*
X130928572Y-142203571D01*
X130785714Y-142275000D01*
X130642857Y-142417857D01*
X130571429Y-142703571D01*
X130571429Y-143203571D01*
X130642857Y-143489286D01*
X130785714Y-143632143D01*
X130928572Y-143703571D01*
X131214286Y-143703571D01*
X131357143Y-143632143D01*
X131500000Y-143489286D01*
X131571429Y-143203571D01*
X131571429Y-142703571D01*
X131500000Y-142417857D01*
X131357143Y-142275000D01*
X131214286Y-142203571D01*
X130071428Y-142203571D02*
X129714285Y-143703571D01*
X129428571Y-142632143D01*
X129142857Y-143703571D01*
X128785714Y-142203571D01*
X128571428Y-143846429D02*
X127428571Y-143846429D01*
X127214285Y-142203571D02*
X126285714Y-142203571D01*
X126785714Y-142775000D01*
X126571428Y-142775000D01*
X126428571Y-142846429D01*
X126357142Y-142917857D01*
X126285714Y-143060714D01*
X126285714Y-143417857D01*
X126357142Y-143560714D01*
X126428571Y-143632143D01*
X126571428Y-143703571D01*
X127000000Y-143703571D01*
X127142857Y-143632143D01*
X127214285Y-143560714D01*
D12*
G36*
X357488169Y-296853142D02*
X355434943Y-296857786D01*
X353445357Y-296865158D01*
X351548307Y-296875259D01*
X349772692Y-296888088D01*
X348147408Y-296903646D01*
X346701355Y-296921932D01*
X345463428Y-296942946D01*
X344462527Y-296966689D01*
X343727548Y-296993160D01*
X343287390Y-297022360D01*
X343177205Y-297041046D01*
X342426160Y-297485278D01*
X341860109Y-298138451D01*
X341527733Y-298919026D01*
X341477714Y-299745467D01*
X341495548Y-299857709D01*
X341753041Y-300502446D01*
X342228376Y-301137875D01*
X342818147Y-301640497D01*
X343125276Y-301804096D01*
X343640041Y-302017318D01*
X343594853Y-317891881D01*
X343549664Y-333766443D01*
X342543734Y-335471141D01*
X342109558Y-336210794D01*
X341560219Y-337152442D01*
X340950214Y-338202352D01*
X340334042Y-339266791D01*
X339966813Y-339903356D01*
X339371500Y-340936294D01*
X338664592Y-342161860D01*
X337905233Y-343477575D01*
X337152567Y-344780962D01*
X336474128Y-345955034D01*
X335810384Y-347103889D01*
X335032638Y-348451219D01*
X334196879Y-349899959D01*
X333359094Y-351353044D01*
X332575273Y-352713411D01*
X332295070Y-353200000D01*
X331660304Y-354301623D01*
X330893708Y-355630565D01*
X330034376Y-357119146D01*
X329121398Y-358699683D01*
X328193867Y-360304494D01*
X327290875Y-361865900D01*
X326693349Y-362898481D01*
X325820299Y-364418427D01*
X325060914Y-365764342D01*
X324426393Y-366915367D01*
X323927937Y-367850646D01*
X323576744Y-368549318D01*
X323384012Y-368990526D01*
X323348993Y-369127371D01*
X323435315Y-369399320D01*
X323685862Y-369939004D01*
X324088011Y-370722673D01*
X324629134Y-371726577D01*
X325296608Y-372926966D01*
X326077806Y-374300090D01*
X326349214Y-374771171D01*
X327098412Y-376068762D01*
X327836469Y-377348776D01*
X328535094Y-378562023D01*
X329165995Y-379659312D01*
X329700882Y-380591452D01*
X330111464Y-381309253D01*
X330296353Y-381634180D01*
X330720195Y-382345605D01*
X331131043Y-382972253D01*
X331475897Y-383436619D01*
X331666101Y-383637200D01*
X331726485Y-383680233D01*
X331803541Y-383719386D01*
X331912885Y-383754841D01*
X332070132Y-383786782D01*
X332290898Y-383815393D01*
X332590797Y-383840856D01*
X332985445Y-383863356D01*
X333490458Y-383883074D01*
X334121449Y-383900195D01*
X334894035Y-383914902D01*
X335823830Y-383927378D01*
X336926450Y-383937806D01*
X338217510Y-383946370D01*
X339712626Y-383953253D01*
X341427412Y-383958638D01*
X343377484Y-383962709D01*
X345578456Y-383965649D01*
X348045945Y-383967641D01*
X350795565Y-383968868D01*
X353842931Y-383969515D01*
X357203660Y-383969763D01*
X360000000Y-383969799D01*
X363611355Y-383969731D01*
X366897385Y-383969406D01*
X369873706Y-383968640D01*
X372555933Y-383967250D01*
X374959681Y-383965053D01*
X377100566Y-383961865D01*
X378994203Y-383957503D01*
X380656206Y-383951784D01*
X382102192Y-383944524D01*
X383347774Y-383935540D01*
X384408570Y-383924650D01*
X385300193Y-383911668D01*
X386038259Y-383896413D01*
X386638383Y-383878701D01*
X387116180Y-383858349D01*
X387487267Y-383835173D01*
X387767256Y-383808990D01*
X387971765Y-383779616D01*
X388116409Y-383746869D01*
X388216801Y-383710566D01*
X388288558Y-383670522D01*
X388333899Y-383637200D01*
X388589667Y-383354813D01*
X388953094Y-382849218D01*
X389371177Y-382197919D01*
X389703647Y-381634180D01*
X390019549Y-381079850D01*
X390477912Y-380279612D01*
X391050447Y-379282656D01*
X391708861Y-378138174D01*
X392424863Y-376895355D01*
X393170163Y-375603390D01*
X393650786Y-374771171D01*
X394465646Y-373347882D01*
X395170814Y-372089743D01*
X395753664Y-371020503D01*
X396201571Y-370163913D01*
X396501910Y-369543722D01*
X396642055Y-369183681D01*
X396651007Y-369127371D01*
X396613306Y-369010908D01*
X391172717Y-369010908D01*
X390778980Y-369628944D01*
X390570591Y-369970375D01*
X390227146Y-370549334D01*
X389782876Y-371307406D01*
X389272012Y-372186177D01*
X388728785Y-373127233D01*
X388718586Y-373144966D01*
X388124798Y-374176498D01*
X387515944Y-375232549D01*
X386940370Y-376229377D01*
X386446422Y-377083238D01*
X386135152Y-377619799D01*
X385218377Y-379196644D01*
X334781623Y-379196644D01*
X333864848Y-377619799D01*
X333474400Y-376946511D01*
X332962519Y-376061306D01*
X332377550Y-375047928D01*
X331767841Y-373990118D01*
X331281414Y-373144966D01*
X330737817Y-372203157D01*
X330225852Y-371322407D01*
X329779777Y-370561170D01*
X329433848Y-369977902D01*
X329222321Y-369631056D01*
X329219922Y-369627285D01*
X328825087Y-369007590D01*
X330669914Y-365838430D01*
X331220406Y-364888778D01*
X331714803Y-364028335D01*
X332126348Y-363304287D01*
X332428282Y-362763821D01*
X332593845Y-362454123D01*
X332614436Y-362409467D01*
X332665382Y-362356350D01*
X332790503Y-362310880D01*
X333014002Y-362272479D01*
X333360078Y-362240568D01*
X333852931Y-362214572D01*
X334516761Y-362193912D01*
X335375770Y-362178010D01*
X336454156Y-362166289D01*
X337776120Y-362158172D01*
X339365862Y-362153080D01*
X341247583Y-362150437D01*
X343445483Y-362149665D01*
X343500098Y-362149664D01*
X354286065Y-362149664D01*
X350920885Y-365518003D01*
X349781753Y-366671294D01*
X348870958Y-367621822D01*
X348194120Y-368363373D01*
X347756858Y-368889736D01*
X347564794Y-369194698D01*
X347555705Y-369238100D01*
X347673608Y-369485697D01*
X347987498Y-369896437D01*
X348437644Y-370409440D01*
X348964316Y-370963828D01*
X349507782Y-371498723D01*
X350008313Y-371953244D01*
X350406178Y-372266514D01*
X350636234Y-372377852D01*
X350811102Y-372261825D01*
X351192811Y-371934274D01*
X351748370Y-371425997D01*
X352444786Y-370767791D01*
X353249068Y-369990455D01*
X354128223Y-369124785D01*
X354236929Y-369016686D01*
X357613423Y-365655520D01*
X357613423Y-374910154D01*
X358062587Y-375263466D01*
X358333511Y-375436523D01*
X358666109Y-375543008D01*
X359146134Y-375597899D01*
X359859338Y-375616175D01*
X360085235Y-375616778D01*
X360870484Y-375605345D01*
X361401015Y-375561060D01*
X361762580Y-375468944D01*
X362040931Y-375314017D01*
X362107883Y-375263466D01*
X362557047Y-374910154D01*
X362557047Y-365647574D01*
X365840190Y-368927478D01*
X366894505Y-369972866D01*
X367738498Y-370790601D01*
X368395485Y-371401329D01*
X368888783Y-371825697D01*
X369241706Y-372084352D01*
X369477572Y-372197941D01*
X369544136Y-372207383D01*
X369876677Y-372082934D01*
X370351447Y-371752500D01*
X370903737Y-371280451D01*
X371468838Y-370731155D01*
X371982040Y-370168982D01*
X372378636Y-369658300D01*
X372593916Y-369263480D01*
X372614765Y-369152880D01*
X372552527Y-368956353D01*
X372352205Y-368650223D01*
X371993392Y-368211370D01*
X371455680Y-367616673D01*
X370718661Y-366843013D01*
X369761925Y-365867269D01*
X369334038Y-365436206D01*
X366053311Y-362139751D01*
X370630207Y-362155159D01*
X372014068Y-362157958D01*
X373097262Y-362154419D01*
X373920036Y-362142264D01*
X374522640Y-362119218D01*
X374945321Y-362083003D01*
X375228327Y-362031342D01*
X375411907Y-361961961D01*
X375530398Y-361877990D01*
X375676583Y-361702901D01*
X375771459Y-361448824D01*
X375825545Y-361046484D01*
X375849361Y-360426606D01*
X375853691Y-359749039D01*
X375856109Y-359040035D01*
X375840028Y-358476449D01*
X375770448Y-358041640D01*
X375612369Y-357718967D01*
X375330792Y-357491789D01*
X374890716Y-357343466D01*
X374257141Y-357257356D01*
X373395067Y-357216817D01*
X372269494Y-357205210D01*
X370845422Y-357205893D01*
X370505160Y-357206040D01*
X366054957Y-357206040D01*
X369334861Y-353922898D01*
X370410726Y-352836435D01*
X371253012Y-351963387D01*
X371878133Y-351285338D01*
X372302501Y-350783875D01*
X372542530Y-350440584D01*
X372614765Y-350243042D01*
X372486889Y-349888814D01*
X372146799Y-349400133D01*
X371659801Y-348840593D01*
X371091202Y-348273786D01*
X370506309Y-347763305D01*
X369970429Y-347372743D01*
X369548868Y-347165692D01*
X369436637Y-347148322D01*
X369287571Y-347263984D01*
X368929828Y-347590538D01*
X368395351Y-348097334D01*
X367716083Y-348753725D01*
X366923966Y-349529061D01*
X366050945Y-350392693D01*
X365933541Y-350509488D01*
X362557047Y-353870654D01*
X362557047Y-349284569D01*
X362558334Y-347789042D01*
X362551599Y-346599463D01*
X362520948Y-345680932D01*
X362450487Y-344998548D01*
X362324321Y-344517411D01*
X362126557Y-344202620D01*
X361841300Y-344019275D01*
X361452656Y-343932475D01*
X360944732Y-343907320D01*
X360301632Y-343908909D01*
X360109124Y-343909396D01*
X359409292Y-343906449D01*
X358853861Y-343921075D01*
X358426201Y-343988470D01*
X358109683Y-344143834D01*
X357887677Y-344422365D01*
X357743554Y-344859260D01*
X357660684Y-345489718D01*
X357622438Y-346348938D01*
X357612186Y-347472117D01*
X357613299Y-348894453D01*
X357613423Y-349191806D01*
X357613423Y-353732907D01*
X354587584Y-350683074D01*
X353491625Y-349588216D01*
X352603096Y-348724152D01*
X351898734Y-348070632D01*
X351355278Y-347607409D01*
X350949466Y-347314237D01*
X350658035Y-347170867D01*
X350526563Y-347148322D01*
X350314281Y-347268692D01*
X349940727Y-347588997D01*
X349463818Y-348048027D01*
X348941470Y-348584572D01*
X348431600Y-349137424D01*
X347992124Y-349645373D01*
X347680960Y-350047210D01*
X347556024Y-350281725D01*
X347555705Y-350288074D01*
X347680947Y-350533088D01*
X348052788Y-351000823D01*
X348665400Y-351684828D01*
X349512952Y-352578651D01*
X350589616Y-353675840D01*
X350878307Y-353965554D01*
X354200910Y-357291275D01*
X344911864Y-357291275D01*
X343167892Y-357290764D01*
X341530602Y-357289295D01*
X340030911Y-357286962D01*
X338699737Y-357283862D01*
X337567997Y-357280091D01*
X336666609Y-357275744D01*
X336026490Y-357270916D01*
X335678558Y-357265703D01*
X335622819Y-357262558D01*
X335705042Y-357113746D01*
X335939037Y-356702920D01*
X336305791Y-356063144D01*
X336786292Y-355227485D01*
X337361527Y-354229007D01*
X338012484Y-353100778D01*
X338710383Y-351892759D01*
X339494188Y-350536755D01*
X340288276Y-349162735D01*
X341060531Y-347826287D01*
X341778835Y-346582998D01*
X342411072Y-345488457D01*
X342925126Y-344598251D01*
X343175145Y-344165101D01*
X343726771Y-343211229D01*
X344390237Y-342067183D01*
X345105101Y-340836998D01*
X345810920Y-339624708D01*
X346315282Y-338760210D01*
X346867463Y-337806597D01*
X347374341Y-336915834D01*
X347805014Y-336143441D01*
X348128580Y-335544942D01*
X348314137Y-335175860D01*
X348328373Y-335143202D01*
X348370930Y-335003181D01*
X348408506Y-334785918D01*
X348441397Y-334471463D01*
X348469898Y-334039866D01*
X348494305Y-333471179D01*
X348514913Y-332745451D01*
X348532018Y-331842733D01*
X348545916Y-330743075D01*
X348556902Y-329426529D01*
X348565271Y-327873144D01*
X348571320Y-326062970D01*
X348575344Y-323976060D01*
X348577638Y-321592462D01*
X348578497Y-318892228D01*
X348578524Y-318259166D01*
X348578524Y-301973825D01*
X371421477Y-301973825D01*
X371421477Y-318259166D01*
X371422063Y-321031123D01*
X371424019Y-323482091D01*
X371427640Y-325632020D01*
X371433221Y-327500859D01*
X371441060Y-329108559D01*
X371451449Y-330475069D01*
X371464687Y-331620337D01*
X371481067Y-332564315D01*
X371500886Y-333326950D01*
X371524439Y-333928194D01*
X371552022Y-334387994D01*
X371583930Y-334726301D01*
X371620459Y-334963065D01*
X371661904Y-335118234D01*
X371671627Y-335143202D01*
X371833395Y-335472372D01*
X372137889Y-336039435D01*
X372554207Y-336788869D01*
X373051449Y-337665151D01*
X373598712Y-338612760D01*
X373684718Y-338760210D01*
X374078911Y-339435286D01*
X374441683Y-340057118D01*
X374790042Y-340655104D01*
X375140991Y-341258641D01*
X375511537Y-341897126D01*
X375918686Y-342599956D01*
X376379442Y-343396529D01*
X376910812Y-344316241D01*
X377529801Y-345388490D01*
X378253415Y-346642674D01*
X379098660Y-348108188D01*
X380082540Y-349814430D01*
X381051692Y-351495302D01*
X381848680Y-352877130D01*
X382694313Y-354342442D01*
X383546500Y-355818361D01*
X384363149Y-357232011D01*
X385102171Y-358510517D01*
X385721474Y-359581002D01*
X385826896Y-359763087D01*
X386530274Y-360978187D01*
X387312248Y-362329761D01*
X388109481Y-363708293D01*
X388858636Y-365004265D01*
X389462258Y-366049078D01*
X391172717Y-369010908D01*
X396613306Y-369010908D01*
X396564494Y-368860122D01*
X396312422Y-368322190D01*
X395905990Y-367534435D01*
X395356397Y-366517713D01*
X394674843Y-365292883D01*
X393872525Y-363880805D01*
X393306651Y-362898481D01*
X392444179Y-361407877D01*
X391529759Y-359826411D01*
X390602482Y-358221762D01*
X389701439Y-356661614D01*
X388865723Y-355213647D01*
X388134427Y-353945543D01*
X387704930Y-353200000D01*
X386957516Y-351902422D01*
X386134203Y-350474097D01*
X385290979Y-349012091D01*
X384483834Y-347613466D01*
X383768755Y-346375287D01*
X383525872Y-345955034D01*
X382837790Y-344764269D01*
X382084651Y-343460051D01*
X381325599Y-342144858D01*
X380619779Y-340921169D01*
X380033187Y-339903356D01*
X379441150Y-338877958D01*
X378820909Y-337807969D01*
X378226961Y-336787122D01*
X377713802Y-335909150D01*
X377456266Y-335471141D01*
X376450336Y-333766443D01*
X376404317Y-317892224D01*
X376358299Y-302018006D01*
X376873894Y-301804439D01*
X377482710Y-301414999D01*
X378028793Y-300830745D01*
X378408789Y-300175072D01*
X378504452Y-299857709D01*
X378496897Y-299031336D01*
X378200317Y-298239659D01*
X377663394Y-297564217D01*
X376934809Y-297086549D01*
X376822795Y-297041046D01*
X376571953Y-297010222D01*
X376009080Y-296982126D01*
X375163073Y-296956758D01*
X374062831Y-296934119D01*
X372737251Y-296914208D01*
X371215231Y-296897025D01*
X369525668Y-296882571D01*
X367697461Y-296870845D01*
X365759506Y-296861848D01*
X363740702Y-296855580D01*
X361669946Y-296852039D01*
X359576135Y-296851226D01*
X357488169Y-296853142D01*
X357488169Y-296853142D01*
G37*
X357488169Y-296853142D02*
X355434943Y-296857786D01*
X353445357Y-296865158D01*
X351548307Y-296875259D01*
X349772692Y-296888088D01*
X348147408Y-296903646D01*
X346701355Y-296921932D01*
X345463428Y-296942946D01*
X344462527Y-296966689D01*
X343727548Y-296993160D01*
X343287390Y-297022360D01*
X343177205Y-297041046D01*
X342426160Y-297485278D01*
X341860109Y-298138451D01*
X341527733Y-298919026D01*
X341477714Y-299745467D01*
X341495548Y-299857709D01*
X341753041Y-300502446D01*
X342228376Y-301137875D01*
X342818147Y-301640497D01*
X343125276Y-301804096D01*
X343640041Y-302017318D01*
X343594853Y-317891881D01*
X343549664Y-333766443D01*
X342543734Y-335471141D01*
X342109558Y-336210794D01*
X341560219Y-337152442D01*
X340950214Y-338202352D01*
X340334042Y-339266791D01*
X339966813Y-339903356D01*
X339371500Y-340936294D01*
X338664592Y-342161860D01*
X337905233Y-343477575D01*
X337152567Y-344780962D01*
X336474128Y-345955034D01*
X335810384Y-347103889D01*
X335032638Y-348451219D01*
X334196879Y-349899959D01*
X333359094Y-351353044D01*
X332575273Y-352713411D01*
X332295070Y-353200000D01*
X331660304Y-354301623D01*
X330893708Y-355630565D01*
X330034376Y-357119146D01*
X329121398Y-358699683D01*
X328193867Y-360304494D01*
X327290875Y-361865900D01*
X326693349Y-362898481D01*
X325820299Y-364418427D01*
X325060914Y-365764342D01*
X324426393Y-366915367D01*
X323927937Y-367850646D01*
X323576744Y-368549318D01*
X323384012Y-368990526D01*
X323348993Y-369127371D01*
X323435315Y-369399320D01*
X323685862Y-369939004D01*
X324088011Y-370722673D01*
X324629134Y-371726577D01*
X325296608Y-372926966D01*
X326077806Y-374300090D01*
X326349214Y-374771171D01*
X327098412Y-376068762D01*
X327836469Y-377348776D01*
X328535094Y-378562023D01*
X329165995Y-379659312D01*
X329700882Y-380591452D01*
X330111464Y-381309253D01*
X330296353Y-381634180D01*
X330720195Y-382345605D01*
X331131043Y-382972253D01*
X331475897Y-383436619D01*
X331666101Y-383637200D01*
X331726485Y-383680233D01*
X331803541Y-383719386D01*
X331912885Y-383754841D01*
X332070132Y-383786782D01*
X332290898Y-383815393D01*
X332590797Y-383840856D01*
X332985445Y-383863356D01*
X333490458Y-383883074D01*
X334121449Y-383900195D01*
X334894035Y-383914902D01*
X335823830Y-383927378D01*
X336926450Y-383937806D01*
X338217510Y-383946370D01*
X339712626Y-383953253D01*
X341427412Y-383958638D01*
X343377484Y-383962709D01*
X345578456Y-383965649D01*
X348045945Y-383967641D01*
X350795565Y-383968868D01*
X353842931Y-383969515D01*
X357203660Y-383969763D01*
X360000000Y-383969799D01*
X363611355Y-383969731D01*
X366897385Y-383969406D01*
X369873706Y-383968640D01*
X372555933Y-383967250D01*
X374959681Y-383965053D01*
X377100566Y-383961865D01*
X378994203Y-383957503D01*
X380656206Y-383951784D01*
X382102192Y-383944524D01*
X383347774Y-383935540D01*
X384408570Y-383924650D01*
X385300193Y-383911668D01*
X386038259Y-383896413D01*
X386638383Y-383878701D01*
X387116180Y-383858349D01*
X387487267Y-383835173D01*
X387767256Y-383808990D01*
X387971765Y-383779616D01*
X388116409Y-383746869D01*
X388216801Y-383710566D01*
X388288558Y-383670522D01*
X388333899Y-383637200D01*
X388589667Y-383354813D01*
X388953094Y-382849218D01*
X389371177Y-382197919D01*
X389703647Y-381634180D01*
X390019549Y-381079850D01*
X390477912Y-380279612D01*
X391050447Y-379282656D01*
X391708861Y-378138174D01*
X392424863Y-376895355D01*
X393170163Y-375603390D01*
X393650786Y-374771171D01*
X394465646Y-373347882D01*
X395170814Y-372089743D01*
X395753664Y-371020503D01*
X396201571Y-370163913D01*
X396501910Y-369543722D01*
X396642055Y-369183681D01*
X396651007Y-369127371D01*
X396613306Y-369010908D01*
X391172717Y-369010908D01*
X390778980Y-369628944D01*
X390570591Y-369970375D01*
X390227146Y-370549334D01*
X389782876Y-371307406D01*
X389272012Y-372186177D01*
X388728785Y-373127233D01*
X388718586Y-373144966D01*
X388124798Y-374176498D01*
X387515944Y-375232549D01*
X386940370Y-376229377D01*
X386446422Y-377083238D01*
X386135152Y-377619799D01*
X385218377Y-379196644D01*
X334781623Y-379196644D01*
X333864848Y-377619799D01*
X333474400Y-376946511D01*
X332962519Y-376061306D01*
X332377550Y-375047928D01*
X331767841Y-373990118D01*
X331281414Y-373144966D01*
X330737817Y-372203157D01*
X330225852Y-371322407D01*
X329779777Y-370561170D01*
X329433848Y-369977902D01*
X329222321Y-369631056D01*
X329219922Y-369627285D01*
X328825087Y-369007590D01*
X330669914Y-365838430D01*
X331220406Y-364888778D01*
X331714803Y-364028335D01*
X332126348Y-363304287D01*
X332428282Y-362763821D01*
X332593845Y-362454123D01*
X332614436Y-362409467D01*
X332665382Y-362356350D01*
X332790503Y-362310880D01*
X333014002Y-362272479D01*
X333360078Y-362240568D01*
X333852931Y-362214572D01*
X334516761Y-362193912D01*
X335375770Y-362178010D01*
X336454156Y-362166289D01*
X337776120Y-362158172D01*
X339365862Y-362153080D01*
X341247583Y-362150437D01*
X343445483Y-362149665D01*
X343500098Y-362149664D01*
X354286065Y-362149664D01*
X350920885Y-365518003D01*
X349781753Y-366671294D01*
X348870958Y-367621822D01*
X348194120Y-368363373D01*
X347756858Y-368889736D01*
X347564794Y-369194698D01*
X347555705Y-369238100D01*
X347673608Y-369485697D01*
X347987498Y-369896437D01*
X348437644Y-370409440D01*
X348964316Y-370963828D01*
X349507782Y-371498723D01*
X350008313Y-371953244D01*
X350406178Y-372266514D01*
X350636234Y-372377852D01*
X350811102Y-372261825D01*
X351192811Y-371934274D01*
X351748370Y-371425997D01*
X352444786Y-370767791D01*
X353249068Y-369990455D01*
X354128223Y-369124785D01*
X354236929Y-369016686D01*
X357613423Y-365655520D01*
X357613423Y-374910154D01*
X358062587Y-375263466D01*
X358333511Y-375436523D01*
X358666109Y-375543008D01*
X359146134Y-375597899D01*
X359859338Y-375616175D01*
X360085235Y-375616778D01*
X360870484Y-375605345D01*
X361401015Y-375561060D01*
X361762580Y-375468944D01*
X362040931Y-375314017D01*
X362107883Y-375263466D01*
X362557047Y-374910154D01*
X362557047Y-365647574D01*
X365840190Y-368927478D01*
X366894505Y-369972866D01*
X367738498Y-370790601D01*
X368395485Y-371401329D01*
X368888783Y-371825697D01*
X369241706Y-372084352D01*
X369477572Y-372197941D01*
X369544136Y-372207383D01*
X369876677Y-372082934D01*
X370351447Y-371752500D01*
X370903737Y-371280451D01*
X371468838Y-370731155D01*
X371982040Y-370168982D01*
X372378636Y-369658300D01*
X372593916Y-369263480D01*
X372614765Y-369152880D01*
X372552527Y-368956353D01*
X372352205Y-368650223D01*
X371993392Y-368211370D01*
X371455680Y-367616673D01*
X370718661Y-366843013D01*
X369761925Y-365867269D01*
X369334038Y-365436206D01*
X366053311Y-362139751D01*
X370630207Y-362155159D01*
X372014068Y-362157958D01*
X373097262Y-362154419D01*
X373920036Y-362142264D01*
X374522640Y-362119218D01*
X374945321Y-362083003D01*
X375228327Y-362031342D01*
X375411907Y-361961961D01*
X375530398Y-361877990D01*
X375676583Y-361702901D01*
X375771459Y-361448824D01*
X375825545Y-361046484D01*
X375849361Y-360426606D01*
X375853691Y-359749039D01*
X375856109Y-359040035D01*
X375840028Y-358476449D01*
X375770448Y-358041640D01*
X375612369Y-357718967D01*
X375330792Y-357491789D01*
X374890716Y-357343466D01*
X374257141Y-357257356D01*
X373395067Y-357216817D01*
X372269494Y-357205210D01*
X370845422Y-357205893D01*
X370505160Y-357206040D01*
X366054957Y-357206040D01*
X369334861Y-353922898D01*
X370410726Y-352836435D01*
X371253012Y-351963387D01*
X371878133Y-351285338D01*
X372302501Y-350783875D01*
X372542530Y-350440584D01*
X372614765Y-350243042D01*
X372486889Y-349888814D01*
X372146799Y-349400133D01*
X371659801Y-348840593D01*
X371091202Y-348273786D01*
X370506309Y-347763305D01*
X369970429Y-347372743D01*
X369548868Y-347165692D01*
X369436637Y-347148322D01*
X369287571Y-347263984D01*
X368929828Y-347590538D01*
X368395351Y-348097334D01*
X367716083Y-348753725D01*
X366923966Y-349529061D01*
X366050945Y-350392693D01*
X365933541Y-350509488D01*
X362557047Y-353870654D01*
X362557047Y-349284569D01*
X362558334Y-347789042D01*
X362551599Y-346599463D01*
X362520948Y-345680932D01*
X362450487Y-344998548D01*
X362324321Y-344517411D01*
X362126557Y-344202620D01*
X361841300Y-344019275D01*
X361452656Y-343932475D01*
X360944732Y-343907320D01*
X360301632Y-343908909D01*
X360109124Y-343909396D01*
X359409292Y-343906449D01*
X358853861Y-343921075D01*
X358426201Y-343988470D01*
X358109683Y-344143834D01*
X357887677Y-344422365D01*
X357743554Y-344859260D01*
X357660684Y-345489718D01*
X357622438Y-346348938D01*
X357612186Y-347472117D01*
X357613299Y-348894453D01*
X357613423Y-349191806D01*
X357613423Y-353732907D01*
X354587584Y-350683074D01*
X353491625Y-349588216D01*
X352603096Y-348724152D01*
X351898734Y-348070632D01*
X351355278Y-347607409D01*
X350949466Y-347314237D01*
X350658035Y-347170867D01*
X350526563Y-347148322D01*
X350314281Y-347268692D01*
X349940727Y-347588997D01*
X349463818Y-348048027D01*
X348941470Y-348584572D01*
X348431600Y-349137424D01*
X347992124Y-349645373D01*
X347680960Y-350047210D01*
X347556024Y-350281725D01*
X347555705Y-350288074D01*
X347680947Y-350533088D01*
X348052788Y-351000823D01*
X348665400Y-351684828D01*
X349512952Y-352578651D01*
X350589616Y-353675840D01*
X350878307Y-353965554D01*
X354200910Y-357291275D01*
X344911864Y-357291275D01*
X343167892Y-357290764D01*
X341530602Y-357289295D01*
X340030911Y-357286962D01*
X338699737Y-357283862D01*
X337567997Y-357280091D01*
X336666609Y-357275744D01*
X336026490Y-357270916D01*
X335678558Y-357265703D01*
X335622819Y-357262558D01*
X335705042Y-357113746D01*
X335939037Y-356702920D01*
X336305791Y-356063144D01*
X336786292Y-355227485D01*
X337361527Y-354229007D01*
X338012484Y-353100778D01*
X338710383Y-351892759D01*
X339494188Y-350536755D01*
X340288276Y-349162735D01*
X341060531Y-347826287D01*
X341778835Y-346582998D01*
X342411072Y-345488457D01*
X342925126Y-344598251D01*
X343175145Y-344165101D01*
X343726771Y-343211229D01*
X344390237Y-342067183D01*
X345105101Y-340836998D01*
X345810920Y-339624708D01*
X346315282Y-338760210D01*
X346867463Y-337806597D01*
X347374341Y-336915834D01*
X347805014Y-336143441D01*
X348128580Y-335544942D01*
X348314137Y-335175860D01*
X348328373Y-335143202D01*
X348370930Y-335003181D01*
X348408506Y-334785918D01*
X348441397Y-334471463D01*
X348469898Y-334039866D01*
X348494305Y-333471179D01*
X348514913Y-332745451D01*
X348532018Y-331842733D01*
X348545916Y-330743075D01*
X348556902Y-329426529D01*
X348565271Y-327873144D01*
X348571320Y-326062970D01*
X348575344Y-323976060D01*
X348577638Y-321592462D01*
X348578497Y-318892228D01*
X348578524Y-318259166D01*
X348578524Y-301973825D01*
X371421477Y-301973825D01*
X371421477Y-318259166D01*
X371422063Y-321031123D01*
X371424019Y-323482091D01*
X371427640Y-325632020D01*
X371433221Y-327500859D01*
X371441060Y-329108559D01*
X371451449Y-330475069D01*
X371464687Y-331620337D01*
X371481067Y-332564315D01*
X371500886Y-333326950D01*
X371524439Y-333928194D01*
X371552022Y-334387994D01*
X371583930Y-334726301D01*
X371620459Y-334963065D01*
X371661904Y-335118234D01*
X371671627Y-335143202D01*
X371833395Y-335472372D01*
X372137889Y-336039435D01*
X372554207Y-336788869D01*
X373051449Y-337665151D01*
X373598712Y-338612760D01*
X373684718Y-338760210D01*
X374078911Y-339435286D01*
X374441683Y-340057118D01*
X374790042Y-340655104D01*
X375140991Y-341258641D01*
X375511537Y-341897126D01*
X375918686Y-342599956D01*
X376379442Y-343396529D01*
X376910812Y-344316241D01*
X377529801Y-345388490D01*
X378253415Y-346642674D01*
X379098660Y-348108188D01*
X380082540Y-349814430D01*
X381051692Y-351495302D01*
X381848680Y-352877130D01*
X382694313Y-354342442D01*
X383546500Y-355818361D01*
X384363149Y-357232011D01*
X385102171Y-358510517D01*
X385721474Y-359581002D01*
X385826896Y-359763087D01*
X386530274Y-360978187D01*
X387312248Y-362329761D01*
X388109481Y-363708293D01*
X388858636Y-365004265D01*
X389462258Y-366049078D01*
X391172717Y-369010908D01*
X396613306Y-369010908D01*
X396564494Y-368860122D01*
X396312422Y-368322190D01*
X395905990Y-367534435D01*
X395356397Y-366517713D01*
X394674843Y-365292883D01*
X393872525Y-363880805D01*
X393306651Y-362898481D01*
X392444179Y-361407877D01*
X391529759Y-359826411D01*
X390602482Y-358221762D01*
X389701439Y-356661614D01*
X388865723Y-355213647D01*
X388134427Y-353945543D01*
X387704930Y-353200000D01*
X386957516Y-351902422D01*
X386134203Y-350474097D01*
X385290979Y-349012091D01*
X384483834Y-347613466D01*
X383768755Y-346375287D01*
X383525872Y-345955034D01*
X382837790Y-344764269D01*
X382084651Y-343460051D01*
X381325599Y-342144858D01*
X380619779Y-340921169D01*
X380033187Y-339903356D01*
X379441150Y-338877958D01*
X378820909Y-337807969D01*
X378226961Y-336787122D01*
X377713802Y-335909150D01*
X377456266Y-335471141D01*
X376450336Y-333766443D01*
X376404317Y-317892224D01*
X376358299Y-302018006D01*
X376873894Y-301804439D01*
X377482710Y-301414999D01*
X378028793Y-300830745D01*
X378408789Y-300175072D01*
X378504452Y-299857709D01*
X378496897Y-299031336D01*
X378200317Y-298239659D01*
X377663394Y-297564217D01*
X376934809Y-297086549D01*
X376822795Y-297041046D01*
X376571953Y-297010222D01*
X376009080Y-296982126D01*
X375163073Y-296956758D01*
X374062831Y-296934119D01*
X372737251Y-296914208D01*
X371215231Y-296897025D01*
X369525668Y-296882571D01*
X367697461Y-296870845D01*
X365759506Y-296861848D01*
X363740702Y-296855580D01*
X361669946Y-296852039D01*
X359576135Y-296851226D01*
X357488169Y-296853142D01*
M02*
