<?xml version="1.0" standalone="no"?>
 <!DOCTYPE svg PUBLIC "-//W3C//DTD SVG 1.1//EN" 
 "http://www.w3.org/Graphics/SVG/1.1/DTD/svg11.dtd"> 
<svg xmlns="http://www.w3.org/2000/svg" version="1.1" 
    width="3.78714cm" height="2.3241cm" viewBox="0 0 14910 9150 ">
<title>SVG Picture created as SingleTest-brd.svg date 2018/06/28 22:52:45 </title>
  <desc>Picture generated by PCBNEW </desc>
<g style="fill:#000000; fill-opacity:1;stroke:#000000; stroke-opacity:1;
stroke-linecap:round; stroke-linejoin:round; "
 transform="translate(0 0) scale(1 1)">
</g>
<g style="fill:#000000; fill-opacity:0.0; 
stroke:#000000; stroke-width:-0.000393701; stroke-opacity:1; 
stroke-linecap:round; stroke-linejoin:round;">
</g>
<g style="fill:#000000; fill-opacity:0.0; 
stroke:#000000; stroke-width:0; stroke-opacity:1; 
stroke-linecap:round; stroke-linejoin:round;">
</g>
<g style="fill:#000000; fill-opacity:1.0; 
stroke:#000000; stroke-width:0; stroke-opacity:1; 
stroke-linecap:round; stroke-linejoin:round;">
<polyline style="fill-rule:evenodd;"
points="6726,1970
6726,395
7415,395
7415,1970
6726,1970
" /> 
<polyline style="fill-rule:evenodd;"
points="5722,1970
5722,395
6411,395
6411,1970
5722,1970
" /> 
<polyline style="fill-rule:evenodd;"
points="7730,1970
7730,395
8419,395
8419,1970
7730,1970
" /> 
<circle cx="1706.69" cy="3348.43" r="393.701" /> 
</g>
<g style="fill:#000000; fill-opacity:1.0; 
stroke:#000000; stroke-width:39.3701; stroke-opacity:1; 
stroke-linecap:round; stroke-linejoin:round;">
</g>
<g style="fill:#000000; fill-opacity:1.0; 
stroke:#000000; stroke-width:0; stroke-opacity:1; 
stroke-linecap:round; stroke-linejoin:round;">
<circle cx="1706.69" cy="5907.48" r="393.701" /> 
</g>
<g style="fill:#000000; fill-opacity:1.0; 
stroke:#000000; stroke-width:39.3701; stroke-opacity:1; 
stroke-linecap:round; stroke-linejoin:round;">
</g>
<g style="fill:#000000; fill-opacity:1.0; 
stroke:#000000; stroke-width:0; stroke-opacity:1; 
stroke-linecap:round; stroke-linejoin:round;">
<polyline style="fill-rule:evenodd;"
points="4718,1970
4718,395
5407,395
5407,1970
4718,1970
" /> 
</g>
<g style="fill:#FFFFFF; fill-opacity:1.0; 
stroke:#FFFFFF; stroke-width:0; stroke-opacity:1; 
stroke-linecap:round; stroke-linejoin:round;">
<circle cx="1706.69" cy="3348.43" r="216.535" /> 
</g>
<g style="fill:#FFFFFF; fill-opacity:1.0; 
stroke:#FFFFFF; stroke-width:39.3701; stroke-opacity:1; 
stroke-linecap:round; stroke-linejoin:round;">
</g>
<g style="fill:#FFFFFF; fill-opacity:1.0; 
stroke:#FFFFFF; stroke-width:0; stroke-opacity:1; 
stroke-linecap:round; stroke-linejoin:round;">
<circle cx="1706.69" cy="5907.48" r="216.535" /> 
</g>
<g style="fill:#FFFFFF; fill-opacity:1.0; 
stroke:#FFFFFF; stroke-width:39.3701; stroke-opacity:1; 
stroke-linecap:round; stroke-linejoin:round;">
</g>
<g style="fill:#000000; fill-opacity:1.0; 
stroke:#000000; stroke-width:39.3701; stroke-opacity:1; 
stroke-linecap:round; stroke-linejoin:round;">
</g>
<g style="fill:#000000; fill-opacity:0.0; 
stroke:#000000; stroke-width:59.0551; stroke-opacity:1; 
stroke-linecap:round; stroke-linejoin:round;">
<circle cx="6529.53" cy="4529.53" r="709.754" /> 
<path d="M5545 4529
L5545 3545
" />
<path d="M5545 3545
L7513 3545
" />
<path d="M7513 3545
L7513 5513
" />
<path d="M7513 5513
L5545 5513
" />
<path d="M5545 5513
L5545 4529
" />
<path d="M4167 4529
L4167 1183
" />
<path d="M4167 1183
L8891 1183
" />
<path d="M8891 1183
L8891 7875
" />
<path d="M8891 7875
L4167 7875
" />
<path d="M4167 7875
L4167 4529
" />
<path d="M2297 3446
L2100 3446
" />
<path d="M1116 3446
L1312 3446
" />
<path d="M1116 5809
L1312 5809
" />
<path d="M2297 5809
L2100 5809
" />
<path d="M2297 3446
L2297 5809
" />
<path d="M1116 5809
L1116 3446
" />
<path d="M10704 3307
L10573 3120
" />
<path d="M10479 3307
L10479 2913
L10629 2913
L10667 2932
L10685 2951
L10704 2988
L10704 3045
L10685 3082
L10667 3101
L10629 3120
L10479 3120
" />
<path d="M10873 3101
L11004 3101
" />
<path d="M11060 3307
L10873 3307
L10873 2913
L11060 2913
" />
<path d="M11360 3101
L11229 3101
" />
<path d="M11229 3307
L11229 2913
L11417 2913
" />
<path d="M11623 2913
L11623 3007
" />
<path d="M11529 2970
L11623 3007
L11716 2970
" />
<path d="M11566 3082
L11623 3007
L11679 3082
" />
<path d="M11923 2913
L11923 3007
" />
<path d="M11829 2970
L11923 3007
L12016 2970
" />
<path d="M11866 3082
L11923 3007
L11979 3082
" />
<path d="M29 8529
L29 29
" />
<path d="M12529 8529
L29 8529
" />
<path d="M12529 29
L12529 8529
" />
<path d="M29 29
L12529 29
" />
</g> 
</svg>
